<svg class="social-icon"  width="67" height="68" viewBox="0 0 67 68" fill="none" xmlns="http://www.w3.org/2000/svg">
<path d="M19.4994 0.666748H47.4994C58.166 0.666748 66.8327 9.33342 66.8327 20.0001V48.0001C66.8327 53.1276 64.7958 58.0451 61.1701 61.6708C57.5444 65.2965 52.6269 67.3334 47.4994 67.3334H19.4994C8.8327 67.3334 0.166031 58.6667 0.166031 48.0001V20.0001C0.166031 14.8726 2.20293 9.95505 5.82863 6.32935C9.45434 2.70365 14.3718 0.666748 19.4994 0.666748ZM18.8327 7.33341C15.6501 7.33341 12.5979 8.5977 10.3474 10.8481C8.09698 13.0986 6.8327 16.1508 6.8327 19.3334V48.6667C6.8327 55.3001 12.1994 60.6667 18.8327 60.6667H48.166C51.3486 60.6667 54.4009 59.4025 56.6513 57.152C58.9017 54.9016 60.166 51.8493 60.166 48.6667V19.3334C60.166 12.7001 54.7994 7.33341 48.166 7.33341H18.8327ZM50.9994 12.3334C52.1044 12.3334 53.1642 12.7724 53.9456 13.5538C54.727 14.3352 55.166 15.395 55.166 16.5001C55.166 17.6052 54.727 18.665 53.9456 19.4464C53.1642 20.2278 52.1044 20.6667 50.9994 20.6667C49.8943 20.6667 48.8345 20.2278 48.0531 19.4464C47.2717 18.665 46.8327 17.6052 46.8327 16.5001C46.8327 15.395 47.2717 14.3352 48.0531 13.5538C48.8345 12.7724 49.8943 12.3334 50.9994 12.3334ZM33.4994 17.3334C37.9196 17.3334 42.1589 19.0894 45.2845 22.215C48.4101 25.3406 50.166 29.5798 50.166 34.0001C50.166 38.4204 48.4101 42.6596 45.2845 45.7852C42.1589 48.9108 37.9196 50.6667 33.4994 50.6667C29.0791 50.6667 24.8399 48.9108 21.7143 45.7852C18.5886 42.6596 16.8327 38.4204 16.8327 34.0001C16.8327 29.5798 18.5886 25.3406 21.7143 22.215C24.8399 19.0894 29.0791 17.3334 33.4994 17.3334ZM33.4994 24.0001C30.8472 24.0001 28.3037 25.0536 26.4283 26.929C24.5529 28.8044 23.4994 31.3479 23.4994 34.0001C23.4994 36.6522 24.5529 39.1958 26.4283 41.0711C28.3037 42.9465 30.8472 44.0001 33.4994 44.0001C36.1515 44.0001 38.6951 42.9465 40.5704 41.0711C42.4458 39.1958 43.4994 36.6522 43.4994 34.0001C43.4994 31.3479 42.4458 28.8044 40.5704 26.929C38.6951 25.0536 36.1515 24.0001 33.4994 24.0001Z" fill="#002F50"/>
</svg>
