<svg class="social-icon"  width="53" height="60" viewBox="0 0 53 60" fill="#000" xmlns="http://www.w3.org/2000/svg">
<path d="M42.1672 9.4C42.1672 9.4 43.8672 11.0667 42.1672 9.4C39.8886 6.79874 38.6329 3.45811 38.6339 0H28.3339V41.3333C28.2545 43.5701 27.3101 45.6887 25.6998 47.2431C24.0894 48.7975 21.9387 49.6663 19.7006 49.6667C14.9672 49.6667 11.0339 45.8 11.0339 41C11.0339 35.2667 16.5672 30.9667 22.2672 32.7333V22.2C10.7672 20.6667 0.700562 29.6 0.700562 41C0.700562 52.1 9.90056 60 19.6672 60C30.1339 60 38.6339 51.5 38.6339 41V20.0333C42.8106 23.0328 47.8251 24.6422 52.9672 24.6333V14.3333C52.9672 14.3333 46.7006 14.6333 42.1672 9.4Z" fill="#000"/>
</svg>
