<svg width="115" height="53" viewBox="0 0 115 53" fill="none" xmlns="http://www.w3.org/2000/svg">
<path fill-rule="evenodd" clip-rule="evenodd" d="M0.62117 52.7686C0.207756 52.6915 -0.0643845 52.2967 0.0133209 51.8866C1.58984 43.5684 6.62935 36.0739 13.1151 29.9816C19.6038 23.8864 27.5863 19.1497 35.1463 16.3544C58.6629 7.65923 83.4382 6.21191 108.115 5.38695C108.535 5.3729 108.887 5.69952 108.901 6.11648C108.916 6.53345 108.586 6.88285 108.166 6.89691C83.4852 7.72201 58.9374 9.17014 35.6784 17.7701C28.3007 20.498 20.4958 25.1294 14.1626 31.0785C7.82638 37.0304 3.00948 44.2563 1.51042 52.1657C1.43272 52.5758 1.03458 52.8457 0.62117 52.7686Z" fill="#668296"/>
<path fill-rule="evenodd" clip-rule="evenodd" d="M105.195 11.1031C104.81 10.9351 104.635 10.4893 104.804 10.1074C105.088 9.46813 105.423 8.93341 105.874 8.47606C106.324 8.01938 106.859 7.67098 107.504 7.36558C109.543 6.39993 111.814 5.90163 113.938 5.53836C114.353 5.46747 114.747 5.7433 114.818 6.15443C114.89 6.56557 114.612 6.95632 114.197 7.02721C112.105 7.38504 110.003 7.85606 108.16 8.72892C107.628 8.98096 107.255 9.23566 106.963 9.53227C106.671 9.82821 106.429 10.197 106.199 10.7159C106.029 11.0977 105.58 11.2711 105.195 11.1031Z" fill="#668296"/>
<path fill-rule="evenodd" clip-rule="evenodd" d="M114.968 6.44957C114.848 6.84948 114.424 7.07734 114.021 6.9585C113.676 6.85697 113.305 6.75408 112.915 6.64624C111.569 6.27348 110.009 5.84155 108.617 5.20243C106.801 4.36858 105.1 3.11162 104.388 0.994591C104.255 0.598801 104.471 0.170999 104.87 0.0390677C105.269 -0.0928626 105.701 0.121039 105.834 0.516829C106.355 2.06748 107.618 3.07852 109.257 3.83143C110.525 4.41382 111.917 4.79982 113.245 5.16803C113.656 5.28205 114.061 5.39436 114.455 5.51027C114.858 5.62912 115.088 6.04965 114.968 6.44957Z" fill="#668296"/>
</svg>
