<svg width="166" height="68" viewBox="0 0 166 68" fill="none" xmlns="http://www.w3.org/2000/svg">
<path d="M2.46676 16.2255L5.82611 2.58931C6.08463 1.59848 8.21163 1.65281 12.2071 2.75229C14.0891 3.27019 15.5698 4.05927 16.6489 5.11953C17.7435 6.18404 18.1171 7.382 17.7698 8.71343C17.5395 9.59589 16.982 10.3385 16.0972 10.9413C15.2125 11.5441 14.3176 11.8371 13.4126 11.8204C14.3922 12.4384 15.1869 13.1632 15.7966 13.9947C16.4218 14.8305 16.6051 15.7438 16.3466 16.7346C16.0881 17.7254 15.4356 18.4834 14.3893 19.0085C12.3784 19.9984 9.67603 20.0263 6.28219 19.0924C3.4437 18.3113 2.17189 17.3556 2.46676 16.2255ZM5.75823 9.7887C6.81162 9.68034 7.91681 9.78535 9.07381 10.1037C9.61374 10.2523 10.1537 10.4009 10.6936 10.5495C11.5112 10.7745 12.5934 10.6823 13.9403 10.2731C15.3066 9.85257 16.0766 9.30947 16.2503 8.64375C16.5088 7.65292 16.0957 6.70129 15.011 5.78886C13.9304 4.86094 12.6419 4.1911 11.1455 3.77932C9.64913 3.36755 8.39371 3.2046 7.37925 3.29049C7.30655 3.56917 7.19951 3.97943 7.05813 4.52129C6.9208 5.04767 6.69827 5.93225 6.39055 7.17504C6.1023 8.40659 5.89153 9.27781 5.75823 9.7887ZM14.6574 16.2698C15.0088 14.9229 13.8152 13.5407 11.0766 12.1234C9.48254 12.1493 8.02218 11.9798 6.69549 11.6147C6.26355 11.4958 5.84538 11.3559 5.44098 11.1948C5.00658 13.0499 4.54097 14.9295 4.04413 16.8338C4.88636 17.2812 5.76256 17.6302 6.67273 17.8807C7.59832 18.1354 8.43007 18.3062 9.16797 18.3931C9.92533 18.4688 10.6911 18.4804 11.4654 18.4279C12.2551 18.3798 12.9382 18.1695 13.5148 17.7972C14.1069 17.4291 14.4878 16.92 14.6574 16.2698ZM19.9422 17.5249C19.8305 17.8261 19.7606 18.0308 19.7323 18.1392C19.4899 19.0681 19.5798 19.8644 20.0019 20.5281C20.4393 21.1961 21.0437 21.6362 21.8151 21.8485C22.5864 22.0607 23.2395 22.1243 23.7742 22.0391C24.3244 21.9582 24.7398 21.8236 25.0204 21.6354C25.7576 21.0915 26.3575 20.8833 26.8203 21.0106C26.99 21.0573 27.1784 21.1589 27.3856 21.3155C27.0334 22.0317 26.2654 22.567 25.0817 22.9216C23.9174 23.2649 22.5716 23.2265 21.0444 22.8062C19.9645 22.509 19.1201 21.9116 18.511 21.0139C17.9215 20.105 17.7822 19.0545 18.0932 17.8624C18.4043 16.6703 18.9366 15.5806 19.6902 14.5932C20.4633 13.5947 21.3925 12.8216 22.4778 12.274C23.5826 11.7152 24.5901 11.561 25.5003 11.8114C26.4258 12.0661 27.1158 12.4634 27.5702 13.0033C28.044 13.5319 28.186 14.1601 27.9962 14.8877C27.6448 16.2346 26.7523 17.1837 25.3188 17.7351C23.9048 18.2752 22.5267 18.3606 21.1846 17.9912C20.8298 17.8936 20.4156 17.7382 19.9422 17.5249ZM21.9007 17.2425C22.6258 17.442 23.3343 17.3881 24.0263 17.0807C24.7182 16.7733 25.2465 16.396 25.6112 15.9488C25.9914 15.5058 26.236 15.0753 26.345 14.6573C26.4541 14.2393 26.387 13.8309 26.1439 13.4322C25.9047 13.0179 25.5692 12.7513 25.1372 12.6325C24.3659 12.4202 23.5092 12.7569 22.5672 13.6426C21.6405 14.5326 20.8889 15.5122 20.3123 16.5814C20.9548 16.9075 21.4842 17.1279 21.9007 17.2425ZM36.9905 16.9396C38.0923 15.9486 39.3837 15.6568 40.8647 16.0643C42.3456 16.4719 43.3682 17.4004 43.9325 18.8499C44.5121 20.3037 44.6 21.8047 44.1961 23.3529C43.7962 24.8856 42.971 26.0523 41.7204 26.8531C40.4698 27.6539 39.0963 27.8484 37.5999 27.4367C36.1036 27.0249 35.125 26.3076 34.6644 25.2848C34.2078 24.2465 34.1794 22.961 34.5793 21.4283C35.1004 19.4312 35.9041 17.935 36.9905 16.9396ZM37.6875 18.4506C37.3295 18.9992 37.0177 19.5606 36.7521 20.1346C36.5021 20.7129 36.3083 21.2653 36.171 21.7917C36.0377 22.3026 35.9531 22.7854 35.9171 23.2401C35.8852 23.6793 35.9072 24.1334 35.9833 24.6024C36.0634 25.0558 36.2563 25.4574 36.5619 25.8069C36.8715 26.1411 37.2809 26.3782 37.7899 26.5182C38.8235 26.8027 39.7985 26.6146 40.7149 25.9542C41.6466 25.298 42.2701 24.3661 42.5851 23.1585C42.9002 21.9509 42.8812 20.6929 42.5282 19.3844C42.1946 18.0647 41.565 17.2775 40.6394 17.0228C40.084 16.87 39.5476 16.9298 39.0301 17.2022C38.5126 17.4747 38.0651 17.8908 37.6875 18.4506ZM49.7724 19.1129C49.1733 19.7612 48.6779 20.8361 48.2861 22.3379C47.6964 24.5982 47.65 26.5186 48.1471 28.099C48.4347 29.0244 48.9179 29.5805 49.5967 29.7672C50.2909 29.9583 50.9412 29.7473 51.5475 29.1343C52.2755 28.3722 52.8454 27.2015 53.2574 25.6224C53.7745 23.6407 53.8785 22.1013 53.5695 21.0041C53.4399 20.4872 53.3781 20.1218 53.3844 19.9078C53.406 19.698 53.4984 19.5658 53.6615 19.5111C53.8245 19.4564 54.0681 19.4737 54.392 19.5628C55.333 19.8218 55.6956 20.9669 55.4798 22.9983C55.431 23.5656 55.3359 24.1202 55.1945 24.662C54.8269 26.0709 54.1817 27.4033 53.2587 28.6593C51.9671 30.378 50.4728 31.0039 48.7758 30.537C47.8811 30.2907 47.2043 29.7478 46.7455 28.908C45.8889 27.3116 45.7938 25.2362 46.4603 22.6817C46.7511 21.567 47.0504 20.7367 47.3582 20.1909C47.666 19.645 47.896 19.3018 48.0485 19.1612C48.2049 19.0052 48.3805 18.8709 48.5751 18.7586C48.7698 18.6462 48.9556 18.631 49.1327 18.7129C49.3252 18.799 49.5384 18.9324 49.7724 19.1129ZM58.493 30.7468L58.217 32.0896C58.1282 32.4302 57.9653 32.6426 57.7284 32.7267C57.5109 32.7997 57.302 32.8085 57.1014 32.7533C56.9163 32.7024 56.7315 32.6184 56.5471 32.5013C56.6763 30.612 56.9977 28.3027 57.5114 25.5734C58.0405 22.8484 58.3361 21.3036 58.3982 20.939C58.6861 20.7859 58.9535 20.7434 59.2003 20.8113C59.4626 20.8835 59.6859 20.9781 59.8703 21.0952C59.8148 21.5612 59.6026 22.5647 59.2336 24.1059C58.8645 25.6471 58.6527 26.6176 58.598 27.0174C59.1532 25.7763 59.856 24.6671 60.7062 23.6898C61.1804 23.1399 61.7127 22.7472 62.3033 22.5114C62.9134 22.2645 63.5038 22.2195 64.0746 22.3766C64.6608 22.5379 65.1243 22.9476 65.4652 23.6055C65.8256 24.2523 65.9512 24.7847 65.8422 25.2027C65.8018 25.3575 65.6769 25.4559 65.4675 25.4978C65.2622 25.5243 65.0439 25.5057 64.8125 25.442C64.5965 25.3826 64.449 25.2507 64.37 25.0465C64.2911 24.8422 64.2547 24.6331 64.2609 24.4191C64.2712 24.1896 64.2214 23.9685 64.1116 23.7557C64.0017 23.543 63.8157 23.4005 63.5534 23.3284C62.8592 23.1373 62.1017 23.6009 61.2809 24.7191C60.0362 26.3844 59.1069 28.3936 58.493 30.7468ZM79.7514 38.3391C79.397 38.5568 79.0424 38.6169 78.6876 38.5192C78.0242 38.3367 77.6235 37.8448 77.4853 37.0435C77.3472 36.2421 77.3805 35.3221 77.5854 34.2833C77.8057 33.2488 78.0415 32.2185 78.2927 31.1925C78.5438 30.1664 78.6852 29.2761 78.7167 28.5215C78.7637 27.7711 78.5866 27.3408 78.1855 27.2304C77.6456 27.0818 77.0556 27.4421 76.4154 28.3114C75.7907 29.1848 75.2457 30.1964 74.7804 31.346C73.48 34.5557 72.5768 36.3067 72.0707 36.5988C71.7566 36.6617 71.4993 36.6656 71.2988 36.6104C71.0983 36.5552 70.9346 36.4853 70.8079 36.4007C70.8556 34.8872 71.2875 32.376 72.1038 28.8672C72.5254 27.1247 72.7873 25.9938 72.8898 25.4744C73.2703 25.3468 73.5763 25.3149 73.8077 25.3785C74.039 25.4422 74.2181 25.5164 74.3448 25.601C74.2483 26.288 73.9314 27.661 73.3942 29.72C72.8724 31.7834 72.5788 32.972 72.5134 33.2858C72.6754 32.982 72.9053 32.481 73.2031 31.7831C73.5164 31.0894 73.7799 30.5231 73.9936 30.0841C74.2114 29.6297 74.5033 29.1126 74.8695 28.5331C75.2357 27.9535 75.5906 27.5119 75.9344 27.2083C76.2822 26.8892 76.7064 26.6574 77.207 26.5131C77.7117 26.3533 78.234 26.3477 78.7739 26.4963C79.4989 26.6958 79.9366 27.173 80.0869 27.9278C80.2566 28.6715 80.2297 29.5352 80.006 30.519C79.7824 31.5029 79.5393 32.4979 79.2768 33.5043C79.0296 34.5148 78.9127 35.4699 78.926 36.3696C78.9547 37.2736 79.2298 37.93 79.7514 38.3391ZM83.4864 35.0111C83.3747 35.3123 83.3048 35.517 83.2765 35.6254C83.0341 36.5543 83.124 37.3506 83.5461 38.0143C83.9835 38.6823 84.588 39.1224 85.3593 39.3347C86.1306 39.5469 86.7837 39.6105 87.3184 39.5253C87.8686 39.4444 88.284 39.3098 88.5646 39.1216C89.3018 38.5777 89.9017 38.3695 90.3645 38.4968C90.5342 38.5435 90.7226 38.6451 90.9298 38.8017C90.5776 39.5179 89.8096 40.0532 88.6259 40.4078C87.4616 40.7511 86.1158 40.7127 84.5886 40.2924C83.5087 39.9953 82.6643 39.3978 82.0552 38.5001C81.4657 37.5912 81.3264 36.5407 81.6374 35.3486C81.9485 34.1565 82.4808 33.0668 83.2344 32.0795C84.0075 31.0809 84.9367 30.3078 86.022 29.7602C87.1268 29.2014 88.1343 29.0472 89.0445 29.2976C89.9701 29.5524 90.66 29.9496 91.1144 30.4895C91.5883 31.0181 91.7303 31.6463 91.5404 32.3739C91.189 33.7208 90.2965 34.67 88.863 35.2213C87.449 35.7614 86.0709 35.8468 84.7288 35.4775C84.374 35.3798 83.9598 35.2244 83.4864 35.0111ZM85.4449 34.7287C86.17 34.9282 86.8785 34.8743 87.5705 34.5669C88.2624 34.2595 88.7908 33.8822 89.1555 33.435C89.5356 32.992 89.7802 32.5616 89.8892 32.1435C89.9983 31.7255 89.9312 31.3171 89.6881 30.9184C89.4489 30.5041 89.1134 30.2375 88.6814 30.1187C87.9101 29.9064 87.0534 30.2431 86.1114 31.1288C85.1847 32.0188 84.4331 32.9984 83.8566 34.0676C84.499 34.3937 85.0284 34.6141 85.4449 34.7287ZM94.1207 31.2919C94.4759 31.008 94.854 30.9212 95.2551 31.0316C95.4093 31.074 95.5535 31.1552 95.6876 31.275C95.4703 33.4387 95.6522 35.5298 96.2334 37.5482C97.2434 36.4654 98.5275 34.9023 100.086 32.8587C100.509 32.7593 100.828 32.7394 101.044 32.7988C101.275 32.8625 101.454 32.9366 101.581 33.0213C101.01 33.9427 100.403 34.7796 99.7604 35.5319C99.1177 36.2843 98.5163 36.9734 97.9562 37.5991C97.3961 38.2249 96.9868 38.6847 96.7282 38.9786C97.0188 39.6393 97.2682 40.1726 97.4765 40.5784C97.7042 40.9729 98.0436 41.4147 98.4947 41.9039C99.0831 42.5637 99.6936 42.9805 100.326 43.1546C100.65 43.2437 100.858 43.3672 100.949 43.525C100.642 44.0047 100.164 44.1554 99.5163 43.9771C98.4364 43.68 97.4676 42.9571 96.6099 41.8084C96.2937 41.3729 96.105 41.1136 96.0441 41.0304C96.0026 40.936 95.8488 40.6697 95.5829 40.2315C95.411 40.3833 95.1488 40.6596 94.7962 41.0604C94.459 41.4654 94.177 41.786 93.95 42.0223C93.7271 42.243 93.4643 42.3947 93.1616 42.4773C92.863 42.5445 92.6135 42.5505 92.4129 42.4953C92.2278 42.4444 92.0564 42.3723 91.8989 42.2792C92.279 41.8362 92.8233 41.2393 93.5318 40.4884C94.2556 39.7418 94.7448 39.2293 94.9994 38.9509C94.5431 37.531 94.2189 36.2388 94.0267 35.0742C93.854 33.8983 93.8853 32.6376 94.1207 31.2919ZM103.524 35.1489C102.83 34.9578 102.404 34.6581 102.246 34.2495C102.31 34.0018 102.461 33.8359 102.698 33.7518C102.95 33.6719 103.204 33.6504 103.459 33.6873C103.718 33.7088 104.129 33.7805 104.692 33.9023C104.848 33.4971 105.01 32.9693 105.18 32.3191C105.369 31.6576 105.532 31.0968 105.668 30.6366C106.034 29.4263 106.415 28.7263 106.812 28.5368C106.983 28.4512 107.145 28.4296 107.3 28.472C107.469 28.5187 107.612 28.5745 107.727 28.6394C107.483 29.7669 107.33 30.4467 107.269 30.6789L106.222 34.1241C106.249 34.1481 106.331 34.1792 106.47 34.2174L108.155 34.6062C109.358 34.9373 109.911 35.2886 109.814 35.6602C109.677 36.1866 109.38 36.4368 108.924 36.4108C108.711 36.4021 108.466 36.3595 108.188 36.2831C107.926 36.2109 107.587 36.0844 107.171 35.9036C106.775 35.7116 106.484 35.5901 106.299 35.5392C106.114 35.4882 105.988 35.462 105.923 35.4605C105.759 35.8968 105.619 36.3394 105.502 36.7883C105.389 37.2218 105.253 37.7735 105.095 38.4435C104.956 39.1022 104.814 39.901 104.668 40.8399C104.538 41.7831 104.555 42.6342 104.721 43.3933C104.891 44.1369 105.238 44.5809 105.762 44.7252C106.025 44.7974 106.359 44.7817 106.767 44.678C107.178 44.5589 107.476 44.5249 107.662 44.5758C107.862 44.631 108.02 44.7241 108.134 44.8552C108.268 44.9751 108.321 45.0892 108.293 45.1976C108.208 45.5227 107.794 45.7488 107.049 45.8759C106.325 45.9917 105.731 45.986 105.268 45.8586C103.571 45.3917 102.935 43.4908 103.358 40.156C103.477 39.1931 103.801 37.573 104.329 35.2957C104.07 35.2742 103.802 35.2253 103.524 35.1489ZM122.707 40.9006C122.661 40.5064 122.472 40.1555 122.138 39.8481C121.805 39.5407 121.353 39.3085 120.783 39.1514C120.212 38.9944 119.627 39.0161 119.029 39.2166C118.447 39.4213 118.081 39.8101 117.932 40.383C117.782 40.9558 117.894 41.4762 118.268 41.9441C118.662 42.4008 119.168 42.8056 119.787 43.1585C120.421 43.5155 121.051 43.8881 121.678 44.2762C122.308 44.6487 122.796 45.1232 123.142 45.6995C123.507 46.2646 123.596 46.9032 123.41 47.6154C123.14 48.6526 122.502 49.3233 121.497 49.6275C120.507 49.9359 119.41 49.9245 118.207 49.5934C117.497 49.3981 116.615 48.9477 115.559 48.2423C114.518 47.5411 114.068 46.9196 114.21 46.3777C114.315 45.9752 114.707 45.8674 115.385 46.0541C115.586 46.1093 115.816 46.3053 116.075 46.6422C116.873 47.6415 117.788 48.2834 118.822 48.5678C119.377 48.7207 119.88 48.7594 120.329 48.684C121.163 48.5316 121.682 48.0607 121.888 47.2711C122.013 46.7912 121.875 46.3384 121.474 45.9126C121.088 45.4911 120.578 45.1018 119.943 44.7447C119.324 44.3919 118.702 44.0214 118.075 43.6334C117.449 43.2453 116.958 42.7533 116.601 42.1572C116.263 41.55 116.189 40.8825 116.379 40.1548C116.625 39.2105 117.25 38.5609 118.251 38.206C119.253 37.8512 120.379 37.8457 121.629 38.1896C122.477 38.4231 123.182 38.8577 123.744 39.4934C124.325 40.1179 124.506 40.8482 124.288 41.6842C124.143 42.2416 123.754 42.4332 123.121 42.2592C122.859 42.187 122.694 42.0917 122.626 41.9734C122.573 41.8593 122.569 41.684 122.614 41.4475C122.679 41.1998 122.71 41.0175 122.707 40.9006ZM127.116 41.6409C126.422 41.4499 125.995 41.1501 125.837 40.7416C125.902 40.4939 126.053 40.3279 126.29 40.2438C126.542 40.1639 126.796 40.1424 127.051 40.1794C127.31 40.2009 127.721 40.2725 128.284 40.3944C128.44 39.9891 128.602 39.4614 128.772 38.8111C128.961 38.1497 129.124 37.5888 129.26 37.1286C129.626 35.9183 130.007 35.2184 130.403 35.0288C130.574 34.9432 130.737 34.9216 130.891 34.964C131.061 35.0107 131.204 35.0666 131.319 35.1315C131.074 36.2589 130.922 36.9387 130.861 37.1709L129.814 40.6161C129.84 40.6401 129.923 40.6712 130.062 40.7094L131.746 41.0982C132.95 41.4293 133.503 41.7807 133.406 42.1522C133.269 42.6786 132.972 42.9288 132.516 42.9028C132.303 42.8941 132.058 42.8515 131.78 42.7751C131.518 42.7029 131.179 42.5765 130.763 42.3957C130.367 42.2036 130.076 42.0822 129.891 42.0312C129.706 41.9803 129.58 41.9541 129.515 41.9526C129.351 42.3888 129.211 42.8314 129.094 43.2804C128.981 43.7139 128.845 44.2656 128.687 44.9355C128.548 45.5943 128.406 46.3931 128.26 47.332C128.129 48.2751 128.147 49.1262 128.313 49.8853C128.483 50.629 128.83 51.0729 129.354 51.2173C129.616 51.2894 129.951 51.2737 130.359 51.1701C130.77 51.051 131.068 51.0169 131.253 51.0678C131.454 51.123 131.611 51.2162 131.726 51.3473C131.86 51.4671 131.913 51.5812 131.885 51.6896C131.8 52.0147 131.385 52.2408 130.641 52.3679C129.917 52.4838 129.323 52.478 128.86 52.3507C127.163 51.8837 126.527 49.9828 126.95 46.648C127.069 45.6851 127.393 44.0651 127.921 41.7877C127.662 41.7663 127.393 41.7173 127.116 41.6409ZM136.148 44.2261C137.25 43.235 138.542 42.9432 140.023 43.3508C141.504 43.7583 142.526 44.6868 143.09 46.1364C143.67 47.5902 143.758 49.0912 143.354 50.6393C142.954 52.172 142.129 53.3388 140.878 54.1396C139.628 54.9404 138.254 55.1349 136.758 54.7231C135.261 54.3113 134.283 53.594 133.822 52.5712C133.366 51.533 133.337 50.2475 133.737 48.7148C134.258 46.7176 135.062 45.2214 136.148 44.2261ZM136.845 45.7371C136.487 46.2857 136.176 46.847 135.91 47.4211C135.66 47.9994 135.466 48.5517 135.329 49.0781C135.196 49.589 135.111 50.0718 135.075 50.5265C135.043 50.9658 135.065 51.4199 135.141 51.8888C135.221 52.3423 135.414 52.7438 135.72 53.0934C136.029 53.4275 136.439 53.6646 136.948 53.8047C137.981 54.0891 138.956 53.9011 139.873 53.2406C140.805 52.5844 141.428 51.6525 141.743 50.4449C142.058 49.2374 142.039 47.9793 141.686 46.6709C141.352 45.3512 140.723 44.564 139.797 44.3093C139.242 44.1564 138.705 44.2162 138.188 44.4887C137.67 44.7611 137.223 45.1772 136.845 45.7371ZM147.053 55.1168L146.777 56.4596C146.688 56.8002 146.525 57.0126 146.288 57.0968C146.071 57.1697 145.862 57.1785 145.661 57.1233C145.476 57.0724 145.291 56.9884 145.107 56.8713C145.236 54.982 145.557 52.6727 146.071 49.9434C146.6 47.2184 146.896 45.6736 146.958 45.309C147.246 45.1559 147.513 45.1134 147.76 45.1813C148.022 45.2535 148.246 45.3481 148.43 45.4652C148.374 45.9312 148.162 46.9347 147.793 48.4759C147.424 50.0171 147.212 50.9876 147.158 51.3874C147.713 50.1463 148.416 49.0371 149.266 48.0598C149.74 47.5099 150.272 47.1172 150.863 46.8814C151.473 46.6345 152.063 46.5895 152.634 46.7466C153.22 46.9079 153.684 47.3176 154.025 47.9756C154.385 48.6223 154.511 49.1547 154.402 49.5727C154.361 49.7275 154.237 49.8259 154.027 49.8678C153.822 49.8943 153.604 49.8757 153.372 49.812C153.156 49.7526 153.009 49.6207 152.93 49.4165C152.851 49.2122 152.814 49.0031 152.821 48.7891C152.831 48.5596 152.781 48.3385 152.671 48.1257C152.561 47.913 152.375 47.7705 152.113 47.6984C151.419 47.5073 150.661 47.9709 149.841 49.0891C148.596 50.7544 147.667 52.7636 147.053 55.1168ZM161.486 51.0741C161.777 49.9594 162.277 49.4997 162.987 49.695C163.126 49.7332 163.26 49.7869 163.391 49.8561C163.343 50.0418 163.211 50.545 162.997 51.3655C162.783 52.1861 162.463 53.8568 162.037 56.3779C161.611 58.8989 161.238 60.7709 160.919 61.994C160.41 63.9447 159.719 65.1982 158.846 65.7546C157.974 66.3109 156.72 66.3641 155.085 65.9141C153.465 65.4684 152.075 64.5217 150.915 63.0742C151.281 62.81 151.688 62.7394 152.136 62.8625C152.301 62.9247 152.541 63.1151 152.855 63.4338C153.78 64.3854 154.606 64.961 155.331 65.1605C156.411 65.4576 157.263 65.3272 157.888 64.7691C158.513 64.211 159.036 63.1269 159.456 61.5168C159.557 61.1298 159.882 59.7258 160.431 57.3049C160.403 57.3471 160.297 57.5335 160.111 57.8641C159.93 58.1792 159.802 58.3846 159.727 58.4803C159.653 58.5759 159.515 58.7538 159.315 59.014C159.131 59.2784 158.96 59.4556 158.805 59.5455C158.649 59.6354 158.449 59.7379 158.204 59.853C157.783 60.0692 157.311 60.1052 156.787 59.9609C156.277 59.8208 155.887 59.6386 155.615 59.4144C155.343 59.1901 155.137 58.9012 154.998 58.5476C154.874 58.1983 154.769 57.8377 154.685 57.4659C154.615 57.0983 154.599 56.6541 154.635 56.1332C154.676 55.5969 154.72 55.1112 154.768 54.6762C154.83 54.2455 154.925 53.724 155.052 53.1117C155.194 52.5036 155.31 51.9962 155.399 51.5895C155.504 51.1869 155.638 50.676 155.799 50.0568L156.163 48.6634C156.386 48.4427 156.698 48.3875 157.099 48.4979C157.654 48.6507 157.879 48.9284 157.774 49.3309L157.048 51.5453C156.535 53.5115 156.301 55.264 156.346 56.803C156.391 58.3419 156.637 59.1729 157.084 59.296C157.423 59.3894 157.773 59.2864 158.132 58.987C158.491 58.6876 158.827 58.2242 159.139 57.5967C159.456 56.9537 159.739 56.343 159.989 55.7647C160.24 55.1864 160.485 54.499 160.726 53.7024C161.091 52.4921 161.345 51.616 161.486 51.0741Z" fill="#002F50"/>
</svg>
