<svg width="144" height="86" viewBox="0 0 144 86" fill="none" xmlns="http://www.w3.org/2000/svg">
<path d="M2.97564 72.7567C2.47628 72.4526 2.00416 72.1805 1.55926 71.9404C1.09619 71.7045 0.646742 71.4846 0.210905 71.2806L0.149738 71.0362C0.267978 70.7397 0.445296 70.3719 0.681689 69.9325C0.895383 69.4793 1.11587 69.0533 1.34316 68.6544C1.57045 68.2555 1.74544 67.9937 1.86812 67.8688L2.11338 67.8109C2.61735 67.9796 3.06456 68.1521 3.455 68.3284C3.82274 68.4909 4.12008 68.6796 4.34702 68.8945C4.48343 68.5938 4.64482 68.2776 4.8312 67.9459C5.01304 67.5961 5.19487 67.2847 5.37667 67.0117C5.55395 66.7205 5.68802 66.5258 5.7789 66.4277L5.99691 66.3762C6.83687 66.6573 7.47474 66.9382 7.91053 67.2189C8.35996 67.4772 8.62999 67.7874 8.7206 68.1496C8.89277 68.8377 8.3813 69.8694 7.18618 71.2447L6.94093 71.3026C6.55506 71.0677 6.18507 70.8578 5.83097 70.6729C5.47233 70.4699 5.13866 70.2898 4.82995 70.1325C4.68426 70.7806 4.14791 71.636 3.2209 72.6987L2.97564 72.7567Z" fill="#002F50"/>
<path d="M5.47904 82.0492L4.87285 81.9334C5.1601 79.9286 5.65375 78.2874 6.35383 77.0098C7.0539 75.7322 8.01254 74.9497 9.22974 74.6623C9.64758 74.5636 10.1222 74.4995 10.6535 74.47C11.203 74.4361 11.6594 74.3763 12.0228 74.2905C12.6223 74.149 12.9945 74.3679 13.1395 74.9474C13.2891 75.545 13.2842 76.1407 13.1249 76.7344C12.9656 77.3282 12.6792 77.8369 12.2657 78.2606C11.8749 78.698 11.3889 78.9854 10.8075 79.1227C10.4078 79.217 9.95144 79.2385 9.43831 79.187C8.94789 79.1494 8.49375 79.1799 8.07591 79.2786C7.40372 79.4373 6.88358 79.7422 6.51549 80.1935C6.16556 80.6405 5.82008 81.2591 5.47904 82.0492Z" fill="#002F50"/>
<path d="M17.2246 85.4364C16.7252 85.1324 16.2508 84.8512 15.8014 84.593C15.3383 84.3571 14.8889 84.1372 14.453 83.9332L14.3919 83.6888C14.4965 83.4147 14.6647 83.049 14.8966 82.5915C15.1148 82.1564 15.3444 81.7282 15.5853 81.307C15.8126 80.9081 15.9898 80.6553 16.117 80.5486L16.3623 80.4907C16.8844 80.655 17.3294 80.8185 17.6971 80.981C18.0649 81.1435 18.3622 81.3322 18.5891 81.5471C18.8165 81.0715 19.0756 80.5692 19.3665 80.0403C19.662 79.5294 19.8802 79.2094 20.021 79.0802L20.239 79.0288C21.079 79.3099 21.7146 79.5818 22.1459 79.8443C22.5998 80.1207 22.8721 80.44 22.9627 80.8022C23.1349 81.4903 22.6234 82.522 21.4283 83.8973L21.183 83.9552C20.4113 83.4854 19.6986 83.0975 19.0448 82.7916C18.9355 83.4311 18.4105 84.2934 17.4698 85.3785L17.2246 85.4364Z" fill="#002F50"/>
<path d="M10.8387 79.1934C10.2392 79.3349 9.86697 79.116 9.72198 78.5365C9.59059 78.0113 9.59771 77.4631 9.74336 76.8917C9.86631 76.3065 10.1209 75.7861 10.5072 75.3305C10.9071 74.8526 11.4318 74.5273 12.0813 74.3548C12.5672 74.2209 12.9601 74.061 13.26 73.8751C13.5553 73.6712 13.8165 73.3697 14.0438 72.9709C14.2893 72.5677 14.5394 71.9909 14.7941 71.2403C14.9852 70.6966 15.2987 70.3732 15.7347 70.2703C16.098 70.1845 16.4477 70.1978 16.7837 70.3103C17.1197 70.4227 17.5238 70.4232 17.9962 70.3117C18.2324 70.2559 18.4526 70.3286 18.6568 70.5297C18.8565 70.7127 18.9881 70.9309 19.0515 71.1844C19.192 71.7458 19.1236 72.2414 18.8463 72.6713C18.5827 73.0787 18.2419 73.3318 17.8241 73.4304C17.3154 73.5505 16.8522 73.5448 16.4345 73.4133C16.0168 73.2818 15.708 73.2396 15.5082 73.2868C15.3992 73.3125 15.3083 73.3723 15.2356 73.4662C15.1765 73.5377 15.0856 73.7509 14.9628 74.106C14.6944 74.8789 14.442 75.5235 14.2056 76.0396C13.9646 76.5375 13.7532 76.9231 13.5714 77.1961C13.1351 77.8361 12.7034 78.3024 12.2764 78.595C11.863 78.8653 11.3838 79.0647 10.8387 79.1934Z" fill="#002F50"/>
<path d="M17.7983 73.4406C17.6529 73.4749 17.469 73.4321 17.2466 73.312C17.006 73.1962 16.8381 72.9481 16.7429 72.5679C16.6025 72.0065 16.6731 71.52 16.9549 71.1082C17.2185 70.7008 17.5593 70.4477 17.9771 70.3491C18.8128 70.1518 19.1381 69.1832 18.9529 67.4433C18.9123 66.9735 18.7539 66.0328 18.4777 64.6213C18.2196 63.2055 17.8256 61.3231 17.2956 58.9743C16.6977 56.3538 16.6743 53.5305 17.2256 50.5045L17.8522 50.5867C17.8656 50.9479 17.9198 51.4337 18.0148 52.0442C18.1053 52.6365 18.2366 53.3535 18.4087 54.195L19.7197 60.5883C19.9369 61.9178 20.0952 63.0503 20.1946 63.9858C20.2894 64.9031 20.3366 65.7454 20.3362 66.5126C20.3358 67.2799 20.2808 68.0983 20.1713 68.968C19.9888 70.3919 19.6885 71.4601 19.2703 72.1725C18.8521 72.885 18.3614 73.3077 17.7983 73.4406Z" fill="#002F50"/>
<path d="M34.1567 72.6606C32.8123 72.978 31.6953 72.7048 30.8057 71.8408C29.9298 70.9545 29.2426 69.5153 28.7442 67.5234C28.3682 66.0204 28.0284 64.5472 27.725 63.1037C27.4397 61.656 27.193 60.3238 26.9848 59.1072C26.7721 57.8725 26.6115 56.8077 26.503 55.9128C26.39 54.9997 26.3291 54.3333 26.3202 53.9134C26.3117 52.9565 26.3918 51.8924 26.5605 50.7211L27.1735 50.749C27.2818 52.0275 27.5215 53.6394 27.8928 55.5846C28.264 57.5299 28.7736 59.7972 29.4215 62.3867C29.5937 63.0749 29.7931 63.7949 30.0197 64.5469C30.26 65.2765 30.5616 65.9436 30.9246 66.5483C31.3057 67.1488 31.7754 67.6036 32.3338 67.9129C32.9058 68.1998 33.6006 68.2467 34.4181 68.0537C35.1993 67.8692 35.7191 68.2931 35.9773 69.3253C36.1495 70.0134 36.1492 70.5888 35.9763 71.0515C35.8035 71.5143 35.5399 71.8834 35.1855 72.1588C34.8448 72.4119 34.5018 72.5791 34.1567 72.6606Z" fill="#002F50"/>
<path d="M34.1756 60.2534C33.6762 59.9493 33.2041 59.6772 32.7592 59.4371C32.2961 59.2012 31.8467 58.9813 31.4108 58.7773L31.3497 58.5329C31.4679 58.2365 31.6452 57.8686 31.8816 57.4292C32.0953 56.976 32.3158 56.55 32.5431 56.1511C32.7704 55.7522 32.9453 55.4904 33.068 55.3655L33.3133 55.3076C33.8173 55.4763 34.2645 55.6488 34.6549 55.8251C35.0227 55.9876 35.32 56.1763 35.5469 56.3912C35.6833 56.0905 35.8447 55.7743 36.0311 55.4426C36.213 55.0929 36.3948 54.7814 36.5766 54.5084C36.7539 54.2172 36.8879 54.0225 36.9788 53.9244L37.1968 53.8729C38.0368 54.154 38.6747 54.4349 39.1104 54.7156C39.5599 54.9739 39.8299 55.2841 39.9205 55.6463C40.0927 56.3344 39.5812 57.3661 38.3861 58.7414L38.1408 58.7994C37.755 58.5644 37.385 58.3545 37.0309 58.1696C36.6722 57.9666 36.3386 57.7865 36.0299 57.6293C35.8842 58.2773 35.3478 59.1328 34.4208 60.1955L34.1756 60.2534Z" fill="#002F50"/>
<path d="M34.1211 72.669C33.3581 72.8492 32.8474 72.4232 32.5892 71.391C32.4215 70.721 32.4241 70.1546 32.597 69.6919C32.7516 69.2334 32.9971 68.8686 33.3333 68.5975C33.6876 68.322 34.0465 68.1414 34.4098 68.0556C35.4999 67.7983 36.2677 67.1759 36.7133 66.1885L37.334 64.7474C37.525 64.2804 37.8476 63.9933 38.3017 63.886C38.7196 63.7874 39.0965 63.7943 39.4325 63.9068C39.7685 64.0192 40.1636 64.0218 40.6177 63.9146C40.8539 63.8588 41.0718 63.9224 41.2716 64.1054C41.4713 64.2884 41.6028 64.5067 41.6663 64.7602C41.8248 65.394 41.7428 65.912 41.4202 66.3142C41.093 66.6983 40.7568 66.9311 40.4116 67.0126C39.9029 67.1327 39.4306 67.1291 38.9948 67.0019C38.5952 66.8661 38.3046 66.8196 38.1229 66.8625C37.9049 66.914 37.7368 67.0879 37.6186 67.3843C37.4958 67.6626 37.3571 68.031 37.2024 68.4895C36.9841 69.1547 36.7476 69.7859 36.4929 70.383C36.2519 70.9577 35.9428 71.4526 35.5657 71.8677C35.2021 72.2604 34.7206 72.5275 34.1211 72.669Z" fill="#002F50"/>
<path d="M40.4153 67.0734C40.27 67.1077 40.0861 67.0648 39.8636 66.9447C39.623 66.8289 39.4551 66.5809 39.36 66.2006C39.2195 65.6392 39.2902 65.1527 39.572 64.7409C39.8356 64.3335 40.1763 64.0804 40.5942 63.9818C41.4299 63.7845 41.7551 62.8159 41.5699 61.0761C41.5293 60.6062 41.3709 59.6655 41.0947 58.254C40.8367 56.8382 40.4427 54.9559 39.9127 52.607C39.3148 49.9865 39.2914 47.1633 39.8426 44.1372L40.4693 44.2194C40.4827 44.5806 40.5369 45.0665 40.6319 45.6769C40.7224 46.2692 40.8537 46.9862 41.0258 47.8278L42.3368 54.221C42.554 55.5505 42.7123 56.683 42.8117 57.6185C42.9065 58.5358 42.9537 59.3781 42.9533 60.1453C42.9528 60.9126 42.8979 61.731 42.7884 62.6007C42.6059 64.0246 42.3056 65.0928 41.8874 65.8052C41.4692 66.5177 40.9785 66.9404 40.4153 67.0734Z" fill="#002F50"/>
<path d="M52.4877 65.4272L51.8542 65.4329C51.8408 64.995 51.7663 64.3126 51.6305 63.3857C51.4948 62.4588 51.2911 61.3371 51.0194 60.0204L49.6404 53.4706C49.4728 52.6471 49.3302 51.9233 49.2125 51.299C49.1129 50.6705 49.0611 50.0402 49.0569 49.4083C49.0482 48.7583 49.0917 48.0097 49.1876 47.1624C49.3016 46.3108 49.4702 45.2546 49.6935 43.9936L50.3201 44.0758C50.2654 44.4723 50.2991 45.1452 50.4211 46.0945C50.5568 47.0213 50.7628 48.2289 51.0389 49.7171L52.4922 57.4864C52.7095 58.6625 52.8201 59.9117 52.8238 61.2341C52.8458 62.5522 52.7337 63.9499 52.4877 65.4272Z" fill="#002F50"/>
<path d="M69.604 64.2915C68.2596 64.6089 67.1426 64.3357 66.253 63.4717C65.3771 62.5854 64.6899 61.1462 64.1915 59.1543C63.8155 57.6513 63.4757 56.1781 63.1723 54.7347C62.887 53.2869 62.6403 51.9548 62.4321 50.7382C62.2194 49.5034 62.0588 48.4386 61.9503 47.5437C61.8373 46.6306 61.7764 45.9642 61.7675 45.5444C61.759 44.5875 61.8391 43.5233 62.0078 42.352L62.6208 42.3799C62.7291 43.6584 62.9688 45.2703 63.3401 47.2155C63.7114 49.1608 64.2209 51.4282 64.8688 54.0177C65.041 54.7058 65.2404 55.4258 65.467 56.1778C65.7073 56.9074 66.0089 57.5745 66.3719 58.1793C66.753 58.7797 67.2227 59.2345 67.7811 59.5438C68.3532 59.8307 69.0479 59.8776 69.8654 59.6846C70.6466 59.5001 71.1664 59.924 71.4246 60.9562C71.5968 61.6443 71.5965 62.2197 71.4236 62.6825C71.2508 63.1452 70.9872 63.5143 70.6328 63.7897C70.2921 64.0428 69.9491 64.21 69.604 64.2915Z" fill="#002F50"/>
<path d="M71.5578 51.1973C70.6 50.5988 69.6784 50.1068 68.7931 49.7213L68.7319 49.4768C68.8365 49.2028 69.007 48.8461 69.2434 48.4067C69.4571 47.9535 69.6867 47.5254 69.9321 47.1222C70.1549 46.7052 70.3276 46.4343 70.4503 46.3094L70.6955 46.2515C71.6626 46.5794 72.3368 46.8901 72.7181 47.1836C73.0949 47.459 73.3217 47.7507 73.3988 48.0585C73.5619 48.7104 73.0209 49.7395 71.7758 51.1458L71.5578 51.1973Z" fill="#002F50"/>
<path d="M69.5684 64.2999C68.8054 64.4801 68.2947 64.0541 68.0365 63.0219C67.8689 62.3519 67.8715 61.7855 68.0443 61.3228C68.1989 60.8643 68.4444 60.4995 68.7806 60.2284C69.1349 59.9529 69.4938 59.7723 69.8571 59.6865C70.9472 59.4292 71.715 58.8068 72.1606 57.8194L72.7813 56.3783C72.9723 55.9113 73.2949 55.6242 73.7491 55.517C74.1669 55.4183 74.5438 55.4252 74.8798 55.5377C75.2158 55.6501 75.6109 55.6527 76.065 55.5455C76.3012 55.4897 76.5192 55.5534 76.7189 55.7363C76.9186 55.9193 77.0501 56.1376 77.1136 56.3911C77.2721 57.0249 77.1901 57.5429 76.8675 57.9451C76.5403 58.3292 76.2041 58.562 75.8589 58.6435C75.3502 58.7636 74.878 58.76 74.4421 58.6328C74.0425 58.497 73.7519 58.4505 73.5702 58.4934C73.3522 58.5449 73.1841 58.7188 73.0659 59.0153C72.9431 59.2936 72.8044 59.6619 72.6497 60.1204C72.4314 60.7856 72.1949 61.4168 71.9402 62.0139C71.6992 62.5886 71.3901 63.0835 71.013 63.4986C70.6494 63.8913 70.1679 64.1584 69.5684 64.2999Z" fill="#002F50"/>
<path d="M72.3616 41.991C71.8622 41.687 71.3901 41.4149 70.9452 41.1748C70.4821 40.9389 70.0327 40.719 69.5969 40.515L69.5357 40.2706C69.6539 39.9741 69.8312 39.6062 70.0676 39.1669C70.2813 38.7137 70.5018 38.2876 70.7291 37.8888C70.9564 37.4899 71.1314 37.228 71.2541 37.1032L71.4993 37.0453C72.0033 37.214 72.4505 37.3865 72.841 37.5628C73.2087 37.7253 73.506 37.914 73.733 38.1289C73.8694 37.8282 74.0308 37.512 74.2171 37.1803C74.399 36.8305 74.5808 36.5191 74.7626 36.2461C74.9399 35.9549 75.074 35.7602 75.1649 35.662L75.3829 35.6106C76.2228 35.8917 76.8607 36.1726 77.2965 36.4533C77.7459 36.7116 78.0159 37.0218 78.1066 37.384C78.2787 38.0721 77.7672 39.1038 76.5721 40.4791L76.3269 40.537C75.941 40.3021 75.571 40.0922 75.2169 39.9073C74.8583 39.7043 74.5246 39.5242 74.2159 39.3669C74.0702 40.015 73.5339 40.8704 72.6068 41.9331L72.3616 41.991Z" fill="#002F50"/>
<path d="M75.8626 58.7043C75.7173 58.7386 75.5334 58.6957 75.3109 58.5756C75.0703 58.4598 74.9024 58.2118 74.8073 57.8315C74.6668 57.2701 74.7398 56.7926 75.0261 56.399C75.2897 55.9916 75.6282 55.7295 76.0415 55.6127C76.5275 55.4788 76.875 55.1762 77.0842 54.7049C77.307 54.2112 77.414 53.6777 77.4053 53.1044C77.1518 51.63 77.2277 49.934 77.633 48.0164L78.2324 47.9899C78.2458 48.5046 78.2955 48.9339 78.3816 49.278C78.7576 50.781 79.5452 51.391 80.7442 51.1079C81.5254 50.9234 82.0451 51.3473 82.3034 52.3795C82.4665 53.0314 82.4616 53.5887 82.2888 54.0514C82.1341 54.5099 81.8819 54.8859 81.532 55.1794C81.1958 55.4506 80.837 55.6312 80.4555 55.7213C79.8923 55.8542 79.4246 55.8304 79.0523 55.6498C78.6755 55.4511 78.394 55.2491 78.208 55.0437C78.1714 55.4359 78.0667 55.9017 77.8938 56.4411C77.7164 56.9625 77.4618 57.4445 77.1301 57.8872C76.7938 58.3118 76.3713 58.5842 75.8626 58.7043Z" fill="#002F50"/>
<path d="M80.3802 55.5829C79.6172 55.763 79.1066 55.337 78.8483 54.3048C78.6807 53.6348 78.6833 53.0684 78.8561 52.6057C79.0108 52.1473 79.2562 51.7825 79.5924 51.5113C79.9468 51.2359 80.3056 51.0552 80.669 50.9695C81.759 50.7121 82.5268 50.0897 82.9724 49.1023L83.5931 47.6612C83.7841 47.1942 84.1067 46.9071 84.5609 46.7999C84.8697 46.727 85.1876 46.7286 85.5145 46.8049C85.8369 46.863 86.1162 46.9025 86.3523 46.9235C87.0435 45.3028 87.7573 43.8109 88.4938 42.448C89.2484 41.0808 90.0619 39.949 90.9343 39.0526C91.8204 38.1338 92.7993 37.5479 93.8712 37.2948C94.5252 37.1404 95.0679 37.1945 95.4991 37.4571C95.944 37.6972 96.2299 38.0708 96.3568 38.5779C96.5154 39.2117 96.5377 39.916 96.4237 40.6908C96.3234 41.4433 96.1458 42.1948 95.8911 42.9454C95.6363 43.6959 95.3453 44.3783 95.018 44.9926C94.7089 45.6026 94.4248 46.082 94.1657 46.4308C93.5522 47.2853 92.782 48.052 91.8552 48.7311C90.9239 49.3921 89.9223 49.8491 88.8504 50.1022C88.2509 50.2438 87.6514 50.3086 87.052 50.2967C86.4526 50.2848 85.8646 50.1647 85.288 49.9365C84.8839 49.7825 84.5638 49.7335 84.3276 49.7892C84.2367 49.8107 84.1322 49.8929 84.0141 50.0358C83.9141 50.1745 83.7299 50.6303 83.4616 51.4033C83.2387 52.0504 82.9999 52.6726 82.7453 53.2697C82.5042 53.8444 82.1952 54.3393 81.818 54.7544C81.459 55.1651 80.9798 55.4413 80.3802 55.5829ZM88.5117 46.9027C89.311 46.714 90.0855 46.4257 90.835 46.0378C91.6027 45.6455 92.2932 45.214 92.9065 44.7432C93.5153 44.2542 93.981 43.7703 94.3037 43.2914C94.6264 42.8124 94.7425 42.3919 94.6519 42.0297C94.5612 41.6676 94.2912 41.4341 93.8417 41.3292C93.4058 41.202 92.9517 41.1941 92.4793 41.3057C91.4801 41.5416 90.5965 42.1242 89.8285 43.0534C89.0742 43.9603 88.3355 45.2758 87.6125 47C87.785 46.9976 87.9462 46.9883 88.0961 46.9721C88.246 46.9559 88.3845 46.9328 88.5117 46.9027Z" fill="#002F50"/>
<path d="M96.7424 29.0429C96.243 28.7389 95.7709 28.4668 95.326 28.2267C94.8629 27.9908 94.4135 27.7709 93.9776 27.5669L93.9165 27.3224C94.0347 27.026 94.212 26.6581 94.4484 26.2188C94.6621 25.7656 94.8826 25.3395 95.1099 24.9407C95.3372 24.5418 95.5122 24.2799 95.6349 24.1551L95.8801 24.0972C96.3841 24.2659 96.8313 24.4384 97.2217 24.6147C97.5895 24.7772 97.8868 24.9659 98.1138 25.1808C98.2502 24.8801 98.4116 24.5639 98.5979 24.2322C98.7798 23.8824 98.9616 23.571 99.1434 23.2979C99.3207 23.0068 99.4548 22.8121 99.5456 22.7139L99.7636 22.6625C100.604 22.9436 101.241 23.2245 101.677 23.5052C102.127 23.7635 102.397 24.0737 102.487 24.4359C102.66 25.124 102.148 26.1557 100.953 27.531L100.708 27.5889C100.322 27.354 99.9518 27.1441 99.5977 26.9592C99.2391 26.7562 98.9054 26.5761 98.5967 26.4188C98.451 27.0669 97.9146 27.9223 96.9876 28.985L96.7424 29.0429Z" fill="#002F50"/>
<path d="M88.9131 50.486C88.2046 50.6533 87.7982 50.5287 87.694 50.1122C87.6487 49.9311 87.676 49.7713 87.776 49.6326C87.8578 49.4982 88.0804 49.3881 88.4438 49.3023C89.5111 49.0312 90.6398 48.6592 91.8298 48.1864C93.0154 47.6956 94.076 47.2438 95.0117 46.8311C97.7553 45.5696 99.845 44.2324 101.281 42.8194C102.04 42.0841 102.551 41.3593 102.815 40.6449C103.097 39.9263 103.154 39.232 102.986 38.562C102.514 39.0571 101.941 39.384 101.269 39.5427C100.706 39.6757 100.154 39.6238 99.6139 39.3869C99.0873 39.1277 98.7538 38.7174 98.6133 38.1561C98.4683 37.5766 98.4778 36.9223 98.6417 36.1932L99.0514 34.3704C99.2336 33.4836 99.7062 32.9501 100.469 32.7699C101.123 32.6155 101.709 32.6882 102.226 32.9879C102.744 33.2876 103.182 33.7308 103.54 34.3174C103.899 34.904 104.166 35.5505 104.343 36.2567C104.937 38.6289 104.49 40.8822 103.004 43.0167C101.532 45.1287 98.9307 46.9606 95.2015 48.5123C94.5065 48.8106 93.6708 49.123 92.6942 49.4495C91.7313 49.7535 90.4709 50.0991 88.9131 50.486Z" fill="#002F50"/>
<path d="M123.943 47.78C123.461 47.4717 122.989 47.1996 122.526 46.9637C122.059 46.7097 121.607 46.4808 121.171 46.2768L121.11 46.0324C121.215 45.7583 121.385 45.4016 121.621 44.9623C121.835 44.5091 122.065 44.0809 122.31 43.6777C122.533 43.2608 122.706 42.9898 122.828 42.865L123.074 42.8071C124.041 43.1349 124.715 43.4456 125.096 43.7392C125.473 44.0146 125.7 44.3062 125.777 44.6141C125.94 45.266 125.401 46.3041 124.161 47.7285L123.943 47.78Z" fill="#002F50"/>
<path d="M124.065 61.243C122.666 61.5733 121.376 61.5709 120.196 61.236C119.033 60.8967 118.039 60.2684 117.213 59.3511C116.387 58.4337 115.798 57.2688 115.444 55.8564C115.068 54.3534 114.84 52.71 114.759 50.9263C114.674 49.1245 114.879 47.024 115.376 44.6246L116.213 44.7432C115.821 47.4824 115.843 49.7212 116.278 51.4596C116.577 52.6547 117.008 53.6078 117.57 54.3188C118.133 55.0298 118.771 55.5408 119.484 55.852C120.215 56.1589 120.984 56.3128 121.792 56.3137C122.605 56.3328 123.402 56.2501 124.184 56.0656C126.164 55.5981 127.776 54.6996 129.021 53.37C130.285 52.0361 131.089 50.3694 131.436 48.3698C131.709 46.771 131.733 45.0969 131.507 43.3476C131.281 41.5982 130.875 39.5555 130.291 37.2195L130.693 36.9808C131.356 36.9393 131.942 36.8585 132.45 36.7384C132.687 36.6826 132.902 36.7372 133.097 36.9021C133.293 37.0669 133.429 37.3033 133.506 37.6112C133.66 38.2268 133.585 38.7336 133.28 39.1316C132.989 39.5071 132.653 39.7399 132.272 39.83L132.135 39.8621C132.625 42.048 132.855 44.2375 132.826 46.4305C132.812 48.6012 132.542 50.64 132.019 52.5472C131.518 54.4681 130.755 56.106 129.728 57.4608C128.973 58.4444 128.126 59.2486 127.185 59.8734C126.268 60.512 125.227 60.9685 124.065 61.243Z" fill="#002F50"/>
<path d="M132.101 39.2619C131.956 39.2963 131.772 39.2534 131.55 39.1333C131.309 39.0175 131.141 38.7695 131.046 38.3892C130.906 37.8278 130.976 37.3413 131.258 36.9295C131.522 36.5221 131.862 36.269 132.28 36.1704C133.098 35.9774 133.709 35.6126 134.113 35.076C134.513 34.5213 134.686 33.8667 134.632 33.1124C134.609 32.7149 134.526 32.1498 134.381 31.4168C134.231 30.6658 134.028 29.7358 133.769 28.6269L132.825 24.5061C132.594 23.4291 132.456 22.2246 132.412 20.8927C132.367 19.5608 132.499 18.1295 132.809 16.5988C133.096 15.1311 133.892 13.4281 135.196 11.49C136.264 9.91456 137.319 8.36149 138.359 6.83082C139.414 5.27775 140.53 3.66225 141.707 1.98433L142.818 0.0821898L143.091 0.132934C143.095 0.381212 143.077 0.730754 143.036 1.18156C143.013 1.62808 142.958 2.17801 142.871 2.83135C142.021 4.58552 140.678 6.71497 138.842 9.21971C138.069 10.2843 137.333 11.3404 136.633 12.3878C135.947 13.4129 135.297 14.4293 134.683 15.4372C134.424 15.8628 134.212 16.2483 134.049 16.5938C133.899 16.9169 133.799 17.2857 133.748 17.7003C133.716 18.1106 133.759 18.6663 133.877 19.3673C133.99 20.0502 134.173 20.9754 134.427 22.1429C134.78 23.7088 135.061 25.0617 135.269 26.2016C135.491 27.319 135.65 28.2981 135.745 29.1387C135.858 29.975 135.921 30.7272 135.934 31.3954C135.943 32.0454 135.92 32.6837 135.865 33.3103C135.714 35.0912 135.291 36.476 134.595 37.4649C133.896 38.4356 133.064 39.0346 132.101 39.2619Z" fill="#002F50"/>
</svg>
