<svg width="115" height="53" viewBox="0 0 115 53" fill="none" xmlns="http://www.w3.org/2000/svg">
<path fill-rule="evenodd" clip-rule="evenodd" d="M114.378 52.7686C114.792 52.6915 115.064 52.2967 114.986 51.8866C113.41 43.5684 108.37 36.0739 101.884 29.9816C95.3957 23.8864 87.4132 19.1497 79.8532 16.3544C56.3366 7.65923 31.5613 6.21191 6.88498 5.38695C6.46457 5.3729 6.11227 5.69952 6.0981 6.11648C6.08393 6.53345 6.41325 6.88285 6.83367 6.89691C31.5143 7.72201 56.0621 9.17014 79.3211 17.7701C86.6988 20.498 94.5038 25.1294 100.837 31.0785C107.173 37.0304 111.99 44.2563 113.489 52.1657C113.567 52.5758 113.965 52.8457 114.378 52.7686Z" fill="#668296"/>
<path fill-rule="evenodd" clip-rule="evenodd" d="M9.8047 11.1031C10.1897 10.9351 10.3645 10.4893 10.1951 10.1074C9.91149 9.46813 9.57679 8.93341 9.12594 8.47606C8.67574 8.01938 8.14039 7.67098 7.49558 7.36558C5.45674 6.39993 3.18551 5.90163 1.06112 5.53836C0.64658 5.46747 0.252592 5.7433 0.18112 6.15443C0.109648 6.56557 0.387758 6.95632 0.802295 7.02721C2.89493 7.38504 4.99622 7.85606 6.83913 8.72892C7.37128 8.98096 7.74432 9.23566 8.03672 9.53227C8.32846 9.82821 8.57058 10.197 8.80079 10.7159C8.9702 11.0977 9.41966 11.2711 9.8047 11.1031Z" fill="#668296"/>
<path fill-rule="evenodd" clip-rule="evenodd" d="M0.0317555 6.44957C0.151582 6.84948 0.575599 7.07734 0.978825 6.9585C1.32329 6.85697 1.69488 6.75408 2.08435 6.64624C3.43058 6.27348 4.9905 5.84155 6.38234 5.20243C8.19825 4.36858 9.89956 3.11162 10.6111 0.994591C10.7441 0.598801 10.5284 0.170999 10.1294 0.0390677C9.7303 -0.0928626 9.29895 0.121039 9.16593 0.516829C8.64477 2.06748 7.38197 3.07852 5.74233 3.83143C4.47403 4.41382 3.08211 4.79982 1.75432 5.16803C1.34317 5.28205 0.938172 5.39436 0.544895 5.51027C0.141669 5.62912 -0.0880709 6.04965 0.0317555 6.44957Z" fill="#668296"/>
</svg>
