<svg width="62" height="62" viewBox="0 0 62 62" fill="none" xmlns="http://www.w3.org/2000/svg">
<path d="M31.0705 53.475C24.7765 53.475 19.4455 51.3027 15.0773 46.958C10.7091 42.6133 8.525 37.2939 8.525 31C8.525 24.7061 10.7091 19.3633 15.0773 14.9716C19.4455 10.5799 24.7765 8.38409 31.0705 8.38409C37.3644 8.38409 42.6955 10.5799 47.0636 14.9716C51.4318 19.3633 53.6159 24.7061 53.6159 31C53.6159 37.2939 51.4318 42.6133 47.0636 46.958C42.6955 51.3027 37.3644 53.475 31.0705 53.475ZM31.2114 49.2477C36.1902 49.2477 40.4409 47.4746 43.9636 43.9284C47.4864 40.3822 49.2477 36.0962 49.2477 31.0705C49.2477 30.0371 49.1538 29.0508 48.9659 28.1114C48.778 27.172 48.4962 26.1621 48.1205 25.0818C46.4765 25.3167 45.267 25.4693 44.492 25.5398C43.717 25.6102 43.0477 25.6455 42.4841 25.6455C39.525 25.6455 36.6011 24.847 33.7125 23.25C30.8239 21.653 28.2053 19.422 25.8568 16.5568C24.6356 19.7977 22.886 22.6042 20.608 24.9761C18.3299 27.3481 15.6644 29.0038 12.6114 29.9432C12.6114 35.6265 14.4314 40.2648 18.0716 43.858C21.7117 47.4511 26.0917 49.2477 31.2114 49.2477ZM13.8795 24.8C15.7114 23.7197 17.3201 22.3458 18.7057 20.6784C20.0913 19.011 21.1129 17.1674 21.7705 15.1477C19.8917 16.228 18.2712 17.6019 16.9091 19.2693C15.547 20.9367 14.5371 22.7803 13.8795 24.8ZM24.7295 35.9318C23.9311 35.9318 23.2617 35.6617 22.7216 35.1216C22.1814 34.5814 21.9114 33.9121 21.9114 33.1136C21.9114 32.3152 22.1814 31.6458 22.7216 31.1057C23.2617 30.5655 23.9311 30.2955 24.7295 30.2955C25.528 30.2955 26.1973 30.5655 26.7375 31.1057C27.2777 31.6458 27.5477 32.3152 27.5477 33.1136C27.5477 33.9121 27.2777 34.5814 26.7375 35.1216C26.1973 35.6617 25.528 35.9318 24.7295 35.9318ZM43.2591 21.4182C43.8697 21.4182 44.4216 21.3947 44.9148 21.3477C45.408 21.3008 45.9129 21.2303 46.4295 21.1364C44.8795 18.553 42.6955 16.4864 39.8773 14.9364C37.0591 13.3864 34.1 12.6114 31 12.6114C30.6242 12.6114 30.272 12.6231 29.9432 12.6466C29.6144 12.6701 29.1917 12.7288 28.675 12.8227C30.272 15.5 32.3739 17.6019 34.9807 19.1284C37.5875 20.6549 40.347 21.4182 43.2591 21.4182ZM37.3409 36.0023C36.5424 36.0023 35.8614 35.7205 35.2977 35.1568C34.7341 34.5932 34.4523 33.9121 34.4523 33.1136C34.4523 32.3152 34.7341 31.6341 35.2977 31.0705C35.8614 30.5068 36.5424 30.225 37.3409 30.225C38.1394 30.225 38.8087 30.5068 39.3489 31.0705C39.889 31.6341 40.1591 32.3152 40.1591 33.1136C40.1591 33.9121 39.889 34.5932 39.3489 35.1568C38.8087 35.7205 38.1394 36.0023 37.3409 36.0023ZM0 13.5273V4.22727C0 3.1 0.422727 2.11364 1.26818 1.26818C2.11364 0.422727 3.1 0 4.22727 0H13.5273V4.22727H4.22727V13.5273H0ZM13.5273 62H4.22727C3.1 62 2.11364 61.5773 1.26818 60.7318C0.422727 59.8864 0 58.9 0 57.7727V48.4727H4.22727V57.7727H13.5273V62ZM48.4727 62V57.7727H57.7727V48.4727H62V57.7727C62 58.9 61.5773 59.8864 60.7318 60.7318C59.8864 61.5773 58.9 62 57.7727 62H48.4727ZM57.7727 13.5273V4.22727H48.4727V0H57.7727C58.9 0 59.8864 0.422727 60.7318 1.26818C61.5773 2.11364 62 3.1 62 4.22727V13.5273H57.7727Z" fill="#008748"/>
</svg>
