<svg width="52" height="44" viewBox="0 0 52 44" fill="none" xmlns="http://www.w3.org/2000/svg">
<path d="M13.5462 5.4299C16.5433 5.4299 19.6514 7.25392 22.7596 10.674L26.0897 14.436L29.4198 10.674C32.528 7.13992 35.6361 5.4299 38.6332 5.4299C40.9643 5.4299 44.1835 6.34191 46.2926 10.56C47.7356 13.524 49.0677 18.312 43.9615 25.3801C39.5213 31.6502 31.8619 36.3242 31.7509 36.4382L31.6399 36.5522V36.4382C29.9749 37.5782 27.3107 38.9462 26.2007 38.9462C25.0906 38.9462 22.4265 37.6922 20.7615 36.4382L20.6505 36.3242L20.5395 36.2102C20.4284 36.2102 12.8801 31.5362 8.32893 25.1521C3.33371 18.084 4.55477 13.41 5.99783 10.3319C7.99592 6.34191 11.215 5.4299 13.5462 5.4299ZM13.5462 0.755859C9.54998 0.755859 4.66577 2.57988 1.77964 8.50793C-1.10648 14.436 -0.66246 21.0481 4.44376 28.1161C9.54998 35.2982 17.9863 40.4282 17.9863 40.4282C17.9863 40.4282 22.5375 43.7343 25.9787 43.7343C29.4198 43.7343 33.971 40.4282 33.971 40.4282C33.971 40.4282 42.4074 35.2982 47.5136 28.1161C52.6198 20.9341 53.0639 14.436 50.1777 8.50793C47.2916 2.57988 42.4074 0.755859 38.4112 0.755859C34.4151 0.755859 30.1969 2.69388 25.8677 7.59593C21.8715 2.69388 17.5423 0.755859 13.5462 0.755859Z" fill="#E94B4B"/>
</svg>
