<svg width="188" height="38" viewBox="0 0 188 38" fill="none" xmlns="http://www.w3.org/2000/svg">
<path d="M12.2032 4.1C14.9032 4.1 17.7032 5.7 20.5032 8.7L23.5032 12L26.5032 8.7C29.3032 5.6 32.1032 4.1 34.8032 4.1C36.9032 4.1 39.8032 4.9 41.7032 8.6C43.0032 11.2 44.2032 15.4 39.6032 21.6C35.6032 27.1 28.7032 31.2 28.6032 31.3L28.5032 31.4V31.3C27.0032 32.3 24.6032 33.5 23.6032 33.5C22.6032 33.5 20.2032 32.4 18.7032 31.3L18.6032 31.2L18.5032 31.1C18.4032 31.1 11.6032 27 7.50321 21.4C3.00321 15.2 4.10322 11.1 5.40322 8.4C7.20322 4.9 10.1032 4.1 12.2032 4.1ZM12.2032 0C8.60321 0 4.20321 1.6 1.60321 6.8C-0.996787 12 -0.596785 17.8 4.00321 24C8.60321 30.3 16.2032 34.8 16.2032 34.8C16.2032 34.8 20.3032 37.7 23.4032 37.7C26.5032 37.7 30.6032 34.8 30.6032 34.8C30.6032 34.8 38.2032 30.3 42.8032 24C47.4032 17.7 47.8032 12 45.2032 6.8C42.6032 1.6 38.2032 0 34.6032 0C31.0032 0 27.2032 1.7 23.3032 6C19.7032 1.7 15.8032 0 12.2032 0Z" fill="#E94B4B"/>
<path d="M77.7035 4.5C77.7035 8.6 77.7035 12.6 77.7035 16.7C76.5035 16.7 75.3035 16.7 74.1035 16.7C74.1035 11.3 74.1035 5.9 74.1035 0.5C76.1035 0.5 78.0035 0.5 80.0035 0.5C81.4035 4.7 82.9035 8.9 84.3035 13.2H84.4035C85.9035 9 87.3035 4.7 88.7035 0.5C90.7035 0.5 92.7035 0.5 94.7035 0.5C94.7035 5.9 94.7035 11.3 94.7035 16.7C93.5035 16.7 92.3035 16.7 91.1035 16.7C91.1035 12.6 91.1035 8.5 91.1035 4.5H91.0035C89.6035 8.6 88.2035 12.7 86.8035 16.8C85.2035 16.8 83.6035 16.8 82.0035 16.8C80.6035 12.7 79.2035 8.6 77.7035 4.5Z" fill="white"/>
<path d="M110.303 20.8999C115.103 20.8999 119.803 20.8999 124.603 20.8999C124.603 22.0999 124.603 23.2999 124.603 24.4999C121.103 24.4999 117.503 24.4999 113.903 24.4999C113.803 25.3999 113.903 26.2999 113.903 27.2999C117.403 27.2999 120.903 27.2999 124.503 27.2999C124.503 28.4999 124.503 29.6999 124.503 30.8999C121.003 30.8999 117.503 30.8999 114.003 30.8999C114.003 31.7999 114.003 32.6999 114.003 33.5999C117.603 33.5999 121.203 33.5999 124.803 33.5999C124.803 34.7999 124.803 35.9999 124.803 37.1999C120.003 37.1999 115.203 37.1999 110.403 37.1999C110.303 31.6999 110.303 26.2999 110.303 20.8999Z" fill="white"/>
<path d="M71.4027 13.1C71.4027 14.3 71.4027 16.7 71.4027 16.7C71.4027 16.7 62.0027 16.7 57.4027 16.7H57.3027C57.3027 11.3 57.3027 5.9 57.3027 0.5C62.1027 0.5 66.7027 0.5 71.5027 0.5C71.5027 1.7 71.5027 2.8 71.5027 4.1C68.0027 4.1 64.5027 4.1 60.9027 4.1C60.9027 5 60.9027 5.9 60.9027 6.8C64.4027 6.8 67.9027 6.8 71.5027 6.8C71.5027 8 71.5027 9.2 71.5027 10.4C71.0027 10.4 60.9027 10.4 60.9027 10.4V13.1C60.8027 13.1 70.1027 13.1 71.4027 13.1Z" fill="white"/>
<path d="M158.903 10.4V13.1H169.503V16.7C169.503 16.7 160.003 16.7 155.203 16.7C155.203 11.3 155.203 5.9 155.203 0.5C160.003 0.5 169.503 0.5 169.503 0.5V4.1H158.903V6.9H169.503V10.5H158.903V10.4Z" fill="white"/>
<path d="M115.803 10.4999C116.903 12.5999 119.203 16.6999 119.203 16.6999H115.103C115.103 16.6999 112.303 11.1999 112.203 11.0999C110.603 11.0999 109.003 11.0999 107.403 11.0999C107.403 12.9999 107.403 14.7999 107.403 16.6999C106.203 16.6999 103.803 16.6999 103.803 16.6999V0.399902C103.803 0.399902 109.803 0.399902 112.503 0.399902C113.603 0.399902 114.603 0.499905 115.603 0.999905C117.703 1.9999 118.703 3.8999 118.503 6.0999C118.403 7.4999 117.903 8.5999 116.903 9.5999C116.603 9.9999 116.203 10.1999 115.803 10.4999ZM107.403 7.4999C107.503 7.4999 107.603 7.4999 107.703 7.4999C109.403 7.4999 111.003 7.4999 112.703 7.4999C112.903 7.4999 113.203 7.4999 113.403 7.3999C114.303 7.2999 114.903 6.6999 114.903 5.7999C114.903 4.8999 114.403 4.1999 113.503 4.0999C113.203 4.0999 113.003 3.9999 112.703 3.9999C111.003 3.9999 109.303 3.9999 107.703 3.9999C107.603 3.9999 107.503 3.9999 107.403 3.9999C107.403 5.1999 107.403 6.3999 107.403 7.4999Z" fill="white"/>
<path d="M186.504 3.39983C185.604 4.09983 184.704 4.79983 183.704 5.59983C183.604 5.49983 183.504 5.49983 183.504 5.39983C182.504 4.39983 181.304 3.89983 180.004 3.69983C179.104 3.59983 178.104 3.59983 177.204 3.79983C176.904 3.89983 176.504 3.99983 176.304 4.29983C175.704 4.79983 175.704 5.69983 176.404 6.19983C176.804 6.49983 177.304 6.59983 177.704 6.59983C178.704 6.69983 179.704 6.79983 180.604 6.89983C181.704 6.99983 182.804 7.19983 183.904 7.59983C184.804 7.89983 185.504 8.39983 186.104 9.09983C187.404 10.5998 187.404 12.9998 186.304 14.6998C185.604 15.6998 184.604 16.3998 183.404 16.7998C182.204 17.1998 181.004 17.3998 179.804 17.3998C178.104 17.3998 176.404 17.0998 174.804 16.3998C173.604 15.8998 172.604 15.1998 171.804 14.1998L171.704 14.0998C171.704 14.0998 171.704 14.0998 171.604 13.9998C172.504 13.2998 173.404 12.4998 174.304 11.6998C174.404 11.7998 174.504 11.7998 174.604 11.8998C176.304 13.3998 178.304 13.9998 180.504 13.7998C181.004 13.7998 181.404 13.6998 181.904 13.5998C182.204 13.4998 182.504 13.3998 182.804 13.1998C183.204 12.9998 183.404 12.5998 183.304 12.0998C183.304 11.5998 183.004 11.2998 182.604 11.1998C182.104 10.9998 181.504 10.8998 180.904 10.7998C179.904 10.6998 178.904 10.5998 177.904 10.4998C176.804 10.3998 175.804 10.1998 174.804 9.79983C173.204 9.09983 172.204 7.89983 172.004 6.19983C171.804 4.19983 172.504 2.59983 174.204 1.39983C175.104 0.799826 176.204 0.399828 177.304 0.299828C178.704 0.0998276 180.204 0.0998284 181.604 0.499828C183.404 0.999828 185.004 1.89983 186.104 3.29983C186.404 3.19983 186.404 3.29983 186.504 3.39983Z" fill="white"/>
<path d="M141.502 23.7996C140.602 24.4996 139.702 25.1996 138.702 25.9996C138.602 25.8996 138.502 25.8996 138.502 25.7996C137.502 24.7996 136.302 24.2996 135.002 24.0996C134.002 23.9996 133.102 23.9996 132.102 24.2996C131.802 24.3996 131.502 24.5996 131.202 24.7996C130.602 25.2996 130.602 26.1996 131.302 26.5996C131.702 26.8996 132.202 26.9996 132.602 26.9996C133.602 27.0996 134.602 27.1996 135.502 27.2996C136.602 27.3996 137.702 27.5996 138.802 27.9996C139.702 28.2996 140.402 28.7996 141.002 29.4996C142.102 30.8996 142.202 32.4996 141.702 34.0996C141.302 35.1996 140.502 35.9996 139.502 36.5996C138.502 37.1996 137.502 37.4996 136.302 37.6996C134.702 37.8996 133.102 37.8996 131.502 37.4996C130.002 37.0996 128.702 36.4996 127.502 35.4996C127.102 35.1996 126.802 34.7996 126.402 34.3996C127.302 33.5996 128.202 32.7996 129.102 32.0996C129.202 32.1996 129.302 32.1996 129.302 32.2996C131.002 33.7996 133.002 34.3996 135.202 34.2996C135.702 34.2996 136.202 34.1996 136.602 34.0996C136.902 33.9996 137.202 33.8996 137.502 33.6996C137.902 33.4996 138.102 33.0996 138.002 32.5996C138.002 32.0996 137.702 31.7996 137.302 31.6996C136.802 31.4996 136.202 31.3996 135.602 31.2996C134.602 31.1996 133.602 31.0996 132.602 30.9996C131.602 30.8996 130.602 30.6996 129.702 30.2996C129.202 30.0996 128.702 29.7996 128.302 29.4996C127.002 28.4996 126.502 27.0996 126.602 25.4996C126.802 23.4996 128.002 22.1996 129.702 21.3996C130.602 20.9996 131.602 20.7996 132.602 20.6996C133.802 20.5996 135.002 20.6996 136.102 20.9996C137.902 21.4996 139.502 22.3996 140.702 23.8996C141.402 23.5996 141.502 23.6996 141.502 23.7996Z" fill="white"/>
<path d="M89.4027 29.0001C89.3027 31.4001 88.6027 33.5001 86.9027 35.2001C85.6027 36.6001 83.9027 37.3001 82.0027 37.6001C80.6027 37.8001 79.2027 37.7001 77.9027 37.3001C75.3027 36.5001 73.4027 34.8001 72.5027 32.3001C71.5027 29.6001 71.7027 27.0001 73.2027 24.5001C74.3027 22.6001 76.0027 21.4001 78.1027 20.8001C80.2027 20.2001 82.3027 20.3001 84.3027 21.2001C86.9027 22.3001 88.5027 24.4001 89.1027 27.1001C89.3027 27.7001 89.4027 28.3001 89.4027 29.0001ZM80.8027 24.0001C78.9027 24.0001 77.3027 24.7001 76.3027 26.4001C75.5027 27.8001 75.4027 29.2001 75.8027 30.7001C76.3027 32.1001 77.2027 33.2001 78.6027 33.7001C79.1027 33.9001 79.5027 34.0001 80.0027 34.0001C82.0027 34.2001 83.7027 33.5001 84.8027 31.7001C85.7027 30.3001 85.8027 28.8001 85.3027 27.3001C84.8027 25.9001 83.9027 24.9001 82.5027 24.3001C82.0027 24.1001 81.4027 24.0001 80.8027 24.0001Z" fill="white"/>
<path d="M127.202 13.0996C126.702 14.2996 126.202 15.5996 125.802 16.7996C124.502 16.7996 123.202 16.7996 121.902 16.7996C121.902 16.4996 127.502 1.79961 128.102 0.599609C130.002 0.599609 131.902 0.599609 133.902 0.599609C136.002 5.99961 140.202 16.8996 140.202 16.8996H136.202C136.202 16.8996 135.302 14.6996 135.002 13.6996C134.902 13.4996 134.902 13.3996 134.802 13.1996C132.202 13.0996 129.702 13.0996 127.202 13.0996ZM133.402 9.39961C132.602 7.29961 131.802 5.29961 131.102 3.19961H131.002C130.202 5.19961 129.402 7.29961 128.702 9.39961C130.202 9.39961 131.802 9.39961 133.402 9.39961Z" fill="white"/>
<path d="M90.5039 20.8999C91.8039 20.8999 93.1039 20.8999 94.5039 20.8999C96.0039 25.3999 97.6039 29.8999 99.1039 34.3999H99.2039C100.704 29.8999 102.304 25.4999 103.804 20.9999C105.104 20.9999 106.404 20.9999 107.704 20.9999C107.704 21.2999 102.304 36.6999 102.004 37.1999C100.104 37.1999 98.2039 37.1999 96.3039 37.1999C94.3039 31.6999 92.4039 26.2999 90.5039 20.8999Z" fill="white"/>
<path d="M147.002 16.6999C145.802 16.6999 144.602 16.6999 143.402 16.6999C143.402 12.4999 143.402 8.2999 143.402 3.9999C142.902 3.9999 142.502 3.9999 142.002 3.9999C141.502 3.9999 141.102 3.9999 140.602 3.9999C140.202 3.9999 139.702 3.9999 139.302 3.9999C138.902 3.9999 138.402 3.9999 137.902 3.9999C137.902 2.7999 137.902 0.399902 137.902 0.399902H152.502C152.502 0.399902 152.502 2.6999 152.502 3.8999C150.702 3.8999 148.902 3.8999 147.102 3.8999C147.102 5.9999 147.102 8.0999 147.102 10.1999C147.002 12.4999 147.002 14.5999 147.002 16.6999Z" fill="white"/>
<path d="M69.9035 33.4998C69.9035 34.6998 69.9035 35.8998 69.9035 36.9998C69.6035 37.0998 57.7035 37.0998 57.1035 36.9998C57.1035 31.5998 57.1035 26.1998 57.1035 20.7998C58.3035 20.7998 59.4035 20.7998 60.7035 20.7998C60.7035 22.1998 60.7035 23.5998 60.7035 24.9998C60.7035 26.3998 60.7035 27.7998 60.7035 29.1998C60.7035 30.5998 60.7035 31.9998 60.7035 33.4998C61.7035 33.4998 62.7035 33.4998 63.7035 33.4998C64.7035 33.4998 65.8035 33.4998 66.8035 33.4998C67.9035 33.4998 68.9035 33.4998 69.9035 33.4998Z" fill="white"/>
<path d="M101.002 16.7C99.8023 16.7 97.4023 16.7 97.4023 16.7C97.4023 16.7 97.4023 5.8 97.4023 0.599998V0.5C98.6023 0.5 99.7023 0.5 100.902 0.5C101.002 5.9 101.002 11.3 101.002 16.7Z" fill="white"/>
<path d="M149.203 24.7001C149.403 24.5001 149.503 24.2001 149.603 23.9001C149.603 23.4001 149.403 23.0001 148.903 22.7001C148.703 22.6001 148.403 22.6001 148.203 22.6001C147.603 22.6001 146.903 22.6001 146.303 22.6001C146.303 22.6001 146.303 22.6001 146.203 22.6001C146.203 23.8001 146.203 25.1001 146.203 26.3001C146.503 26.3001 146.703 26.3001 147.003 26.3001C147.003 25.9001 147.003 25.5001 147.003 25.0001C147.003 25.0001 147.003 25.0001 147.103 25.0001C147.403 25.0001 147.803 25.0001 148.103 25.0001H148.203C148.403 25.4001 148.603 25.8001 148.803 26.2001C148.803 26.2001 148.803 26.2001 148.903 26.2001C149.203 26.2001 149.503 26.2001 149.703 26.2001C149.403 25.7001 149.203 25.3001 148.903 24.8001C149.103 24.8001 149.103 24.8001 149.203 24.7001ZM148.503 24.2001C148.403 24.2001 148.403 24.2001 148.303 24.2001C147.903 24.2001 147.503 24.2001 147.103 24.2001C147.103 23.9001 147.103 23.7001 147.103 23.4001C147.103 23.4001 147.103 23.4001 147.203 23.4001C147.603 23.4001 148.003 23.4001 148.303 23.4001C148.403 23.4001 148.503 23.4001 148.603 23.4001C148.803 23.5001 148.903 23.6001 148.803 23.8001C148.803 24.0001 148.603 24.2001 148.503 24.2001Z" fill="white"/>
<path d="M147.803 21C145.803 21 144.203 22.6 144.203 24.6C144.203 26.6 145.803 28.2 147.803 28.2C149.803 28.2 151.403 26.6 151.403 24.6C151.403 22.6 149.803 21 147.803 21ZM150.603 24.5C150.603 25.2 150.303 26 149.803 26.5C149.303 27 148.603 27.3 147.803 27.3C147.003 27.3 146.303 27 145.803 26.5C145.303 26 145.003 25.3 145.003 24.5C145.003 23.7 145.303 23.1 145.803 22.5C146.303 22 147.003 21.7 147.803 21.7C148.503 21.7 149.303 22 149.803 22.5C150.303 23.1 150.603 23.8 150.603 24.5Z" fill="white"/>
</svg>
