<svg width="145" height="46" viewBox="0 0 145 46" fill="none" xmlns="http://www.w3.org/2000/svg">
<path d="M139.348 11.5019L140.899 15.5912H137.796L139.348 11.5019ZM138.352 8.53467L133.697 20.2882H136.028L137.052 17.5176H141.643L142.669 20.2882H145L140.345 8.53467H138.352Z" fill="white"/>
<path d="M142.092 24.1445L139.122 28.9405L136.152 24.1445H133.244L137.915 31.4376V37.2662H140.33V31.4376L145 24.1445H142.092Z" fill="white"/>
<path d="M53.8887 20.2928V8.53784H56.0499L61.1476 16.6311V8.53784H63.3102V20.2928H61.1476L56.0499 12.2077V20.2928H53.8887Z" fill="white"/>
<path d="M66.1974 20.2928V8.53784H72.5864V10.4697H68.3601V13.4329H72.4184V15.3634H68.3601V18.3623H72.5864V20.2928H66.1974Z" fill="white"/>
<path d="M76.2455 8.53784L78.5056 17.2939L81.0612 8.53784H82.6913L85.2469 17.2939L87.5071 8.53784H89.9082L86.5586 20.2928H84.1507L81.877 12.777L79.6019 20.2928H77.194L73.8457 8.53784H76.2455Z" fill="white"/>
<path d="M96.062 8.53784H98.3642L101.18 16.0536L104.008 8.53784H106.311L107.49 20.2928H105.329L104.555 12.4855L101.853 19.9655H100.512L97.81 12.4855L97.0376 20.2928H94.875L96.062 8.53784Z" fill="white"/>
<path d="M109.709 20.2928V8.53784H116.098V10.4697H111.872V13.4329H115.929V15.3634H111.872V18.3623H116.098V20.2928H109.709Z" fill="white"/>
<path d="M120.809 10.5037V18.3261H121.539C123.687 18.3261 125.294 16.6596 125.294 14.4156C125.294 12.1716 123.687 10.5037 121.539 10.5037H120.809ZM118.641 20.2924V8.53467H121.771C125.057 8.53467 127.612 11.0991 127.612 14.4128C127.612 17.7266 125.078 20.2924 121.776 20.2924H118.641Z" fill="white"/>
<path d="M132.129 8.53906H129.967V20.294H132.129V8.53906Z" fill="white"/>
<path d="M61.9335 32.0178L60.2004 27.4528L58.4687 32.0178H61.9335ZM59.0879 24.1445H61.3102L66.5054 37.2731H63.9037L62.7601 34.1793H57.634L56.4903 37.2731H53.8887L59.0879 24.1445Z" fill="white"/>
<path d="M67.9895 30.7118C67.9895 26.9113 70.9042 23.9055 74.8934 23.9055C76.4842 23.9055 77.9815 24.406 79.0086 25.1526L77.8406 27.1574C77.1197 26.617 76.1007 26.3145 75.0506 26.3145C72.3229 26.3145 70.6074 28.223 70.6074 30.7145C70.6074 33.2061 72.3229 35.1146 75.0506 35.1146C76.1007 35.1146 77.1197 34.8121 77.8406 34.2703L79.0073 36.271C77.9801 37.019 76.4828 37.5195 74.892 37.5195C70.9028 37.5195 67.9882 34.5137 67.9882 30.7118" fill="white"/>
<path d="M88.2341 32.0178L86.5024 27.4528L84.7693 32.0178H88.2341ZM85.3885 24.1445H87.6149L92.8114 37.2731H90.2097L89.0647 34.1793H83.9387L82.795 37.2731H80.1934L85.3885 24.1445Z" fill="white"/>
<path d="M97.6373 26.339V35.0731H98.4503C100.849 35.0731 102.651 33.2113 102.651 30.7061C102.651 28.2008 100.856 26.3404 98.4503 26.3404L97.6373 26.339ZM95.2227 37.2731V24.1445H98.7186C102.387 24.1445 105.239 27.0073 105.239 30.7047C105.239 34.4021 102.402 37.2731 98.7186 37.2731H95.2227Z" fill="white"/>
<path d="M108.527 37.2662V24.1445H115.659V26.3005H110.941V29.6074H115.471V31.7634H110.941V35.1116H115.659V37.2662H108.527Z" fill="white"/>
<path d="M119.753 24.1445H122.322L125.466 32.5348L128.624 24.1445H131.195L132.511 37.2662H130.097L129.235 28.55L126.218 36.9005H124.72L121.704 28.55L120.842 37.2662H118.428L119.753 24.1445Z" fill="white"/>
<path d="M40.9532 35.6431C40.9532 35.6431 39.6578 40.1668 34.8339 41.6807C34.1279 41.8911 33.4005 42.0185 32.6658 42.0602C30.7042 42.1742 28.7544 41.6839 27.0723 40.6536C26.3353 40.1923 25.6642 39.6306 25.0777 38.9843C23.0194 36.7637 19.0844 32.6593 13.8702 27.2143C14.7474 26.3113 15.6223 25.4047 16.4949 24.4945C23.0329 31.2884 25.121 33.5008 25.7565 34.2034C25.9273 34.3918 26.7714 35.2457 27.8541 36.4282C28.0216 36.6169 28.1994 36.7959 28.3866 36.9644C28.3866 36.9644 28.5086 37.0689 28.6373 37.1666C30.0559 38.2291 31.8765 38.5722 33.5764 38.0974C34.5131 37.8278 35.3659 37.3189 36.0534 36.6193C37.5439 35.0752 37.6483 33.1598 37.655 32.6167C37.6574 31.4334 37.3254 30.2743 36.6984 29.2768C36.2628 28.5497 35.6965 27.9121 35.029 27.3971L37.7201 24.7502C38.2413 25.2381 38.718 25.7729 39.1442 26.348C39.7106 27.1125 40.9193 28.7845 41.2838 31.2637C41.4937 32.7301 41.3822 34.2254 40.9572 35.6431H40.9532ZM19.3079 39.2181C18.19 40.1806 16.7442 41.3768 14.7523 41.876C14.003 42.063 12.4732 42.3077 10.4311 41.6243C10.4311 41.6243 5.95005 40.3951 4.37009 35.5275C4.14992 34.8168 4.0108 34.0828 3.95545 33.3399C3.80776 31.3519 4.25501 29.3649 5.23866 27.6391C5.6786 26.8797 6.21986 26.1857 6.84708 25.5766C8.97177 23.4729 12.877 19.4537 18.2117 13.9606L20.8947 16.6886C14.6534 23.0672 12.1927 25.5629 11.5707 26.1761C11.3336 26.4085 11.2184 26.5199 10.9935 26.7481C10.4664 27.2789 9.95146 27.822 9.41622 28.3459C9.23264 28.5186 9.05934 28.7023 8.89724 28.8959C8.89724 28.8959 8.79697 29.021 8.70347 29.1544C7.67906 30.6126 7.37133 32.4674 7.86878 34.1855C8.15274 35.1301 8.67113 35.9847 9.37421 36.6674C9.78072 37.0621 11.3173 38.4192 13.3485 38.2184C14.667 38.0892 15.5952 37.3508 16.7198 36.4571C17.1573 36.1091 17.5681 35.7281 17.9488 35.3172C18.8106 36.2247 19.6729 37.1326 20.5356 38.0411C20.1466 38.456 19.7354 38.849 19.3039 39.2181H19.3079ZM4.36873 10.5808C4.36873 10.5808 5.58149 6.03502 10.3769 4.43039C11.0774 4.20726 11.8007 4.06609 12.5328 4.00964C14.4921 3.85941 16.4504 4.31379 18.1507 5.31315C18.8989 5.75938 19.5828 6.30813 20.1833 6.9439C22.2822 9.12742 26.3053 13.1741 31.6333 18.5476L28.9327 21.2C22.3378 14.5848 20.2361 12.4247 19.5898 11.7372C18.8919 10.9933 18.1535 10.2907 17.4515 9.55092C17.2806 9.36574 17.0997 9.19038 16.9095 9.02566C16.9095 9.02566 16.7849 8.92254 16.6548 8.82766C15.2181 7.79085 13.3921 7.48017 11.7008 7.98478C10.7723 8.27439 9.93252 8.80084 9.26175 9.51379C8.87285 9.92629 7.53408 11.4869 7.73192 13.5467C7.86742 14.8846 8.5883 15.8278 9.46907 16.9677C9.81153 17.4119 10.1871 17.8289 10.5924 18.2148L7.89994 20.8384C7.49134 20.4433 7.10414 20.026 6.74004 19.5885C5.79152 18.4541 4.61264 16.987 4.12212 14.9657C3.93919 14.2053 3.69528 12.6598 4.36873 10.5808ZM26.0045 6.8394C27.1265 5.8769 28.5682 4.68064 30.5601 4.18289C31.3108 3.99726 32.8393 3.74976 34.8813 4.43314C34.8813 4.43314 39.361 5.66377 40.9423 10.5299C41.1622 11.2407 41.3014 11.9747 41.357 12.7176C41.505 14.7058 41.0573 16.693 40.0724 18.4183C39.6324 19.1773 39.0916 19.8713 38.4654 20.4808C36.3163 22.6094 32.3677 26.6588 27.117 32.0227L24.4489 29.3235C30.9531 22.6602 33.0656 20.5358 33.7417 19.8813C33.9287 19.6998 34.7539 18.8281 35.8962 17.7116C36.0791 17.5385 36.2519 17.3549 36.4138 17.1616C36.4138 17.1616 36.5155 17.0365 36.609 16.9031C37.6312 15.4455 37.9378 13.5925 37.4409 11.8761C37.1555 10.9339 36.6368 10.0817 35.9342 9.40104C35.5276 9.00641 33.991 7.64928 31.9599 7.84866C30.6306 7.98616 29.6699 8.75066 28.5885 9.61142C28.1395 9.96752 27.719 10.3593 27.3311 10.7829L24.7443 8.04803C25.1419 7.62171 25.5626 7.21821 26.0045 6.8394ZM45.3814 13.3899C45.3822 7.93086 42.1142 3.01888 37.1243 0.978715C32.1343 -1.06145 26.4233 0.179453 22.6942 4.11414C19.3881 0.619079 14.4782 -0.789075 9.85837 0.432833C5.23851 1.65474 1.6307 5.31574 0.426545 10.0037C-0.77761 14.6917 0.610085 19.6739 4.05437 23.0287C0.644783 26.3911 -0.716497 31.3559 0.491812 36.022C1.70012 40.6881 5.29081 44.3326 9.88886 45.5597C14.4869 46.7868 19.3799 45.4066 22.6942 41.9475C26.0246 45.327 30.8787 46.6468 35.4282 45.4098C39.9776 44.1728 43.5311 40.567 44.7501 35.9505C45.9691 31.334 44.6684 26.4082 41.338 23.0287C43.9259 20.5103 45.3875 17.0284 45.3841 13.3899" fill="white"/>
<path d="M40.9972 35.6425C40.9972 35.6425 39.7018 40.1594 34.8779 41.6801C34.1719 41.8905 33.4445 42.0179 32.7098 42.0596C30.7483 42.173 28.7987 41.6827 27.1163 40.653C26.3779 40.192 25.7054 39.6303 25.1176 38.9837C23.0593 36.7631 19.1243 32.6587 13.9102 27.2137L16.5443 24.4939C23.0837 31.2878 25.1718 33.5002 25.8073 34.2028C25.9781 34.3912 26.8222 35.2451 27.9049 36.4276C28.0724 36.6163 28.2502 36.7953 28.4374 36.9638C28.4374 36.9638 28.5594 37.0683 28.6881 37.166C30.104 38.2263 31.9208 38.5694 33.6177 38.0968C34.5542 37.8265 35.4063 37.316 36.092 36.6146C37.5825 35.0705 37.6869 33.1551 37.6936 32.6119C37.6944 31.4299 37.3615 30.2723 36.7343 29.2762C36.2986 28.5492 35.7324 27.9116 35.0649 27.3965L37.756 24.7496C38.2772 25.2376 38.7539 25.7723 39.1801 26.3474C39.7465 27.1119 40.9552 28.7839 41.3183 31.2631C41.5286 32.7294 41.4176 34.2247 40.9931 35.6425" fill="#EA01B7"/>
<path d="M19.3449 39.2184C18.227 40.1809 16.7812 41.3772 14.788 41.875C14.04 42.0633 12.5102 42.3081 10.4668 41.6247C10.4668 41.6247 5.98706 40.3954 4.40709 35.5279C4.18627 34.8174 4.04713 34.0833 3.99245 33.3403C3.84476 31.3523 4.29202 29.3653 5.27567 27.6395C5.71561 26.8801 6.25687 26.186 6.88409 25.577C9.00877 23.4732 12.9126 19.4541 18.2487 13.9609L20.9303 16.689C14.6972 23.0662 12.2297 25.5632 11.6064 26.1765C11.3706 26.4089 11.2554 26.5203 11.0305 26.7471C10.5034 27.2793 9.98846 27.8224 9.45322 28.3463C9.26964 28.519 9.09634 28.7027 8.93425 28.8963C8.93425 28.8963 8.83398 29.0214 8.73912 29.1534C7.71771 30.6119 7.41159 32.465 7.90849 34.1818C8.19193 35.1281 8.71088 35.9843 9.41528 36.6678C9.82179 37.0624 11.3584 38.4196 13.3882 38.2188C14.7067 38.0896 15.6362 37.3512 16.7609 36.4574C17.1983 36.1099 17.6087 35.7289 17.9886 35.3175L20.5767 38.0414C20.1874 38.4561 19.7762 38.849 19.3449 39.2184Z" fill="#EA01B7"/>
<path d="M4.40929 10.5811C4.40929 10.5811 5.62882 6.03533 10.4175 4.4307C11.118 4.20757 11.8413 4.0664 12.5733 4.00995C14.5325 3.86008 16.4906 4.31393 18.1913 5.31208C18.9392 5.75918 19.6231 6.30836 20.2238 6.94421C22.3228 9.12772 26.3445 13.1744 31.6738 18.5465L28.9733 21.2003C22.3811 14.5769 20.278 12.425 19.6317 11.7361C18.9352 10.9936 18.1967 10.291 17.4948 9.55123C17.3239 9.36604 17.143 9.19069 16.9528 9.02597C16.9528 9.02597 16.8281 8.92285 16.6981 8.82797C15.2607 7.79029 13.4335 7.47958 11.7414 7.98509C10.8103 8.27354 9.96772 8.79951 9.29418 9.51272C8.90528 9.92523 7.56787 11.4845 7.7657 13.5456C7.89308 14.8835 8.62208 15.8268 9.5015 16.9666C9.84475 17.4106 10.2207 17.8275 10.6262 18.2138L7.9405 20.8386C7.53329 20.4435 7.14745 20.0262 6.78466 19.5888C5.83614 18.4544 4.65726 16.9873 4.16674 14.9646C3.97839 14.2056 3.73584 12.6601 4.40929 10.5811Z" fill="#EA01B7"/>
<path d="M26.0405 6.83972C27.1611 5.87721 28.6043 4.68095 30.5962 4.1832C31.3455 3.9962 32.8753 3.75007 34.9173 4.43345C34.9173 4.43345 39.3971 5.66408 40.9784 10.5302C41.1983 11.241 41.3374 11.975 41.393 12.7179C41.5426 14.7055 41.0968 16.6926 40.1139 18.4186C39.6738 19.1776 39.1331 19.8716 38.5068 20.4812C36.3577 22.6097 32.4092 26.6591 27.1571 32.023L24.4904 29.3238C30.9945 22.6605 33.1057 20.5362 33.7832 19.8817C33.9702 19.7002 34.7954 18.8284 35.9377 17.7119C36.1202 17.5385 36.293 17.3549 36.4553 17.1619C36.4553 17.1619 36.5569 17.0368 36.6504 16.9034C37.6727 15.4453 37.9793 13.5919 37.4824 11.875C37.1965 10.933 36.6778 10.081 35.9756 9.39998C35.5691 9.00673 34.0325 7.64959 32.0013 7.84897C30.672 7.98647 29.7113 8.75097 28.63 9.61173C28.1806 9.96745 27.7601 10.3592 27.3725 10.7832C26.5089 9.87481 25.6462 8.96639 24.7844 8.05797C25.1826 7.63169 25.6037 7.22819 26.046 6.84934" fill="#EA01B7"/>
</svg>
