<svg width="60" height="55" viewBox="0 0 60 55" fill="none" xmlns="http://www.w3.org/2000/svg">
<path d="M29.6591 50.8698C29.8864 50.8698 30.1477 50.8125 30.4432 50.6978C30.7386 50.583 30.9773 50.4339 31.1591 50.2503L54.1364 26.9837C54.7273 26.3871 55.1705 25.7103 55.4659 24.9531C55.7614 24.1959 55.9091 23.4272 55.9091 22.6471C55.9091 21.8669 55.7614 21.0868 55.4659 20.3066C55.1705 19.5265 54.7273 18.8381 54.1364 18.2416L41.8636 5.85106C41.2727 5.25448 40.5909 4.80705 39.8182 4.50876C39.0455 4.21047 38.2727 4.06133 37.5 4.06133C36.7273 4.06133 35.9659 4.21047 35.2159 4.50876C34.4659 4.80705 33.7955 5.25448 33.2045 5.85106L31.9773 7.09011L37.5 12.7347C38.0909 13.3771 38.6136 14.1229 39.0682 14.9718C39.5227 15.8208 39.75 16.7501 39.75 17.7597C39.75 19.5035 39.0795 21.0409 37.7386 22.3717C36.3977 23.7025 34.8636 24.368 33.1364 24.368C32 24.368 31.0568 24.1959 30.3068 23.8517C29.5568 23.5075 28.8636 23.0142 28.2273 22.3717L23.25 17.3467L10.9091 29.806C10.6818 30.0355 10.5227 30.2764 10.4318 30.5288C10.3409 30.7812 10.2955 31.0451 10.2955 31.3204C10.2955 31.917 10.4886 32.4103 10.875 32.8004C11.2614 33.1904 11.75 33.3855 12.3409 33.3855C12.6136 33.3855 12.875 33.3166 13.125 33.179C13.375 33.0413 13.5909 32.8807 13.7727 32.6971L23.1818 23.1977L26.0455 26.0889L16.7045 35.5194C16.4773 35.7489 16.3182 36.0013 16.2273 36.2766C16.1364 36.5519 16.0909 36.8273 16.0909 37.1026C16.0909 37.6533 16.2955 38.1352 16.7045 38.5482C17.1136 38.9612 17.5909 39.1677 18.1364 39.1677C18.4091 39.1677 18.6705 39.1103 18.9205 38.9956C19.1705 38.8809 19.3864 38.7317 19.5682 38.5482L28.9773 29.0488L31.8409 31.9399L22.5 41.3705C22.3182 41.554 22.1705 41.795 22.0568 42.0932C21.9432 42.3915 21.8864 42.6783 21.8864 42.9537C21.8864 43.5044 22.0909 43.9862 22.5 44.3993C22.9091 44.8123 23.3864 45.0188 23.9318 45.0188C24.2045 45.0188 24.4545 44.9729 24.6818 44.8811C24.9091 44.7893 25.1364 44.6287 25.3636 44.3993L34.7727 34.8999L37.6364 37.791L28.2273 47.2904C28 47.5198 27.8409 47.7722 27.75 48.0476C27.6591 48.3229 27.6136 48.5753 27.6136 48.8048C27.6136 49.4472 27.7955 49.952 28.1591 50.3191C28.5227 50.6863 29.0227 50.8698 29.6591 50.8698ZM29.6591 55C28.1591 55 26.8182 54.4378 25.6364 53.3135C24.4545 52.1892 23.75 50.801 23.5227 49.1489C21.9773 48.9195 20.6818 48.277 19.6364 47.2215C18.5909 46.166 17.9545 44.8582 17.7273 43.2979C16.1818 43.0684 14.8977 42.4145 13.875 41.336C12.8523 40.2576 12.2273 38.9612 12 37.4468C10.3182 37.2174 8.93182 36.529 7.84091 35.3817C6.75 34.2345 6.20455 32.8577 6.20455 31.2516C6.20455 30.4714 6.35227 29.6913 6.64773 28.9111C6.94318 28.131 7.38636 27.4426 7.97727 26.8461L23.25 11.4268L30.75 18.9987C31.1136 19.3659 31.5114 19.6527 31.9432 19.8592C32.375 20.0657 32.7955 20.169 33.2045 20.169C33.7955 20.169 34.3523 19.9051 34.875 19.3773C35.3977 18.8496 35.6591 18.2874 35.6591 17.6909C35.6591 17.4155 35.5795 17.1058 35.4205 16.7616C35.2614 16.4174 35 16.0617 34.6364 15.6946L24.8864 5.85106C24.2955 5.25448 23.6136 4.80705 22.8409 4.50876C22.0682 4.21047 21.2955 4.06133 20.5227 4.06133C19.75 4.06133 18.9886 4.21047 18.2386 4.50876C17.4886 4.80705 16.8182 5.25448 16.2273 5.85106L5.86364 16.3141C5.22727 16.9566 4.78409 17.6335 4.53409 18.3448C4.28409 19.0561 4.13636 19.8477 4.09091 20.7197C4.04545 21.6375 4.21591 22.5209 4.60227 23.3698C4.98864 24.2188 5.45455 24.9875 6 25.6758L3.06818 28.6358C2.15909 27.6262 1.42045 26.4101 0.852273 24.9875C0.284091 23.5649 0 22.1193 0 20.6508C0 19.2741 0.261364 17.9547 0.784091 16.6927C1.30682 15.4307 2.04545 14.3179 3 13.3542L13.2955 2.95995C14.2955 1.95035 15.4318 1.20463 16.7045 0.722778C17.9773 0.240926 19.2727 0 20.5909 0C21.9091 0 23.1932 0.240926 24.4432 0.722778C25.6932 1.20463 26.8182 1.95035 27.8182 2.95995L29.0455 4.199L30.2727 2.95995C31.2727 1.95035 32.4091 1.20463 33.6818 0.722778C34.9545 0.240926 36.25 0 37.5682 0C38.8864 0 40.1705 0.240926 41.4205 0.722778C42.6705 1.20463 43.7955 1.95035 44.7955 2.95995L57 15.2816C58 16.2912 58.75 17.4385 59.25 18.7234C59.75 20.0083 60 21.3162 60 22.6471C60 23.9779 59.75 25.2743 59.25 26.5363C58.75 27.7983 58 28.9341 57 29.9437L34.0227 53.1414C33.4318 53.738 32.7614 54.1969 32.0114 54.5182C31.2614 54.8394 30.4773 55 29.6591 55Z" fill="#0075BD"/>
</svg>
