<svg width="362" height="299" viewBox="0 0 362 299" fill="none" xmlns="http://www.w3.org/2000/svg">
<g opacity="0.4">
<path d="M95.3365 1.29443C67.8019 1.29443 34.1484 13.8624 14.2622 54.7083C-5.62395 95.5541 -2.56452 141.113 32.6187 189.814C67.8019 239.3 125.931 274.648 125.931 274.648C125.931 274.648 157.29 297.427 181 297.427C204.71 297.427 236.069 274.648 236.069 274.648C236.069 274.648 294.198 239.3 329.381 189.814C364.565 140.328 367.624 95.5541 347.738 54.7083C327.852 13.8624 294.198 1.29443 266.663 1.29443C239.129 1.29443 210.064 14.6479 180.235 48.4243C152.7 14.6479 122.871 1.29443 95.3365 1.29443Z" stroke="#F10034" stroke-width="2.5" stroke-linecap="round" stroke-linejoin="round" stroke-dasharray="5 5"/>
</g>
</svg>
