<svg width="72" height="74" viewBox="0 0 72 74" fill="none" xmlns="http://www.w3.org/2000/svg">
<path fill-rule="evenodd" clip-rule="evenodd" d="M63.4451 39.6769C62.5427 40.1848 61.3666 39.8095 60.8181 38.8385C56.2818 30.8074 52.1136 22.6059 47.961 14.4352C47.4325 13.3952 46.9042 12.3558 46.3754 11.3172C45.8696 10.3236 46.2109 9.14351 47.1379 8.68133C48.0648 8.21915 49.2264 8.64993 49.7322 9.6435C50.2623 10.6847 50.7911 11.725 51.3193 12.7642C55.477 20.9449 59.6 29.0571 64.086 36.9991C64.6345 37.9701 64.3475 39.169 63.4451 39.6769Z" fill="#F999AE"/>
<path fill-rule="evenodd" clip-rule="evenodd" d="M20.4279 13.7736C21.2458 12.9971 22.5307 13.0049 23.298 13.7909C24.7458 15.2741 26.1906 16.7576 27.6343 18.24C36.0714 26.9032 44.4692 35.5259 53.2063 43.8163C54.0035 44.5728 54.0104 45.8387 53.2218 46.644C52.4331 47.4492 51.1475 47.4887 50.3503 46.7322C41.553 38.3847 33.0952 29.7002 24.6604 21.0392C23.2189 19.559 21.778 18.0795 20.3363 16.6026C19.569 15.8166 19.6101 14.55 20.4279 13.7736Z" fill="#F999AE"/>
<path fill-rule="evenodd" clip-rule="evenodd" d="M12.8421 46.2968C13.2303 45.2952 14.3579 44.7925 15.3606 45.174L48.0621 57.6148C49.0648 57.9963 49.5629 59.1175 49.1746 60.1191C48.7863 61.1207 47.6587 61.6234 46.6561 61.242L13.9545 48.8011C12.9519 48.4196 12.4538 47.2984 12.8421 46.2968Z" fill="#F999AE"/>
</svg>
