<svg width="68" height="66" viewBox="0 0 68 66" fill="none" xmlns="http://www.w3.org/2000/svg">
<path fill-rule="evenodd" clip-rule="evenodd" d="M24.9314 58.9044C24.6296 57.9138 25.2494 56.846 26.3157 56.5195C35.1351 53.8186 44.0417 51.5138 52.9148 49.2176C54.0441 48.9254 55.1729 48.6333 56.301 48.3405C57.3802 48.0604 58.4591 48.6478 58.7109 49.6526C58.9627 50.6573 58.2919 51.6988 57.2128 51.9789C56.0818 52.2724 54.9521 52.5648 53.8235 52.8569C44.9396 55.1559 36.13 57.4358 27.4084 60.1067C26.3421 60.4333 25.2331 59.8949 24.9314 58.9044Z" fill="#F999AE"/>
<path fill-rule="evenodd" clip-rule="evenodd" d="M59.4884 22.4734C60.0705 23.4392 59.7863 24.6924 58.8536 25.2724C57.0934 26.367 55.3336 27.4585 53.5752 28.5492C43.2988 34.9234 33.0702 41.2678 23.0933 48.0152C22.1829 48.6308 20.9451 48.3651 20.3286 47.4216C19.712 46.478 19.9502 45.2141 20.8606 44.5984C30.9063 37.8045 41.2081 31.4148 51.4819 25.0424C53.2377 23.9533 54.9927 22.8648 56.7454 21.7748C57.6782 21.1948 58.9062 21.5075 59.4884 22.4734Z" fill="#F999AE"/>
<path fill-rule="evenodd" clip-rule="evenodd" d="M29.361 8.06358C30.2555 8.65838 30.5037 9.86776 29.9153 10.7648L10.7258 40.0211C10.1374 40.9181 8.93532 41.1631 8.04081 40.5683C7.14629 39.9735 6.89811 38.7641 7.48649 37.8671L26.6759 8.61083C27.2643 7.71379 28.4664 7.46878 29.361 8.06358Z" fill="#F999AE"/>
</svg>
