<svg width="18" height="22" viewBox="0 0 18 22" fill="none" xmlns="http://www.w3.org/2000/svg">
<path d="M8.9987 10.9998C9.59453 10.9998 10.1048 10.7875 10.5294 10.3628C10.9534 9.93889 11.1654 9.429 11.1654 8.83317C11.1654 8.23734 10.9534 7.72709 10.5294 7.30242C10.1048 6.87848 9.59453 6.6665 8.9987 6.6665C8.40286 6.6665 7.89298 6.87848 7.46903 7.30242C7.04436 7.72709 6.83203 8.23734 6.83203 8.83317C6.83203 9.429 7.04436 9.93889 7.46903 10.3628C7.89298 10.7875 8.40286 10.9998 8.9987 10.9998ZM8.9987 18.9623C11.2015 16.9401 12.8355 15.1028 13.9008 13.4503C14.9661 11.7986 15.4987 10.3318 15.4987 9.04984C15.4987 7.08178 14.8711 5.47014 13.6159 4.21492C12.3614 2.96042 10.8223 2.33317 8.9987 2.33317C7.17509 2.33317 5.63567 2.96042 4.38045 4.21492C3.12595 5.47014 2.4987 7.08178 2.4987 9.04984C2.4987 10.3318 3.03134 11.7986 4.09661 13.4503C5.16189 15.1028 6.79592 16.9401 8.9987 18.9623ZM8.9987 21.8332C6.09175 19.3596 3.92075 17.0618 2.4857 14.9399C1.04992 12.8188 0.332031 10.8554 0.332031 9.04984C0.332031 6.3415 1.20339 4.18387 2.94611 2.57692C4.68812 0.969976 6.70564 0.166504 8.9987 0.166504C11.2918 0.166504 13.3093 0.969976 15.0513 2.57692C16.794 4.18387 17.6654 6.3415 17.6654 9.04984C17.6654 10.8554 16.9478 12.8188 15.5128 14.9399C14.077 17.0618 11.9056 19.3596 8.9987 21.8332Z" fill="white"/>
</svg>
