<svg width="208" height="44" viewBox="0 0 208 44" fill="none" xmlns="http://www.w3.org/2000/svg">
<path d="M13.5462 5.4299C16.5433 5.4299 19.6514 7.25392 22.7596 10.674L26.0897 14.436L29.4198 10.674C32.528 7.13992 35.6361 5.4299 38.6332 5.4299C40.9643 5.4299 44.1835 6.34191 46.2926 10.56C47.7356 13.524 49.0677 18.312 43.9615 25.3801C39.5213 31.6502 31.8619 36.3242 31.7509 36.4382L31.6399 36.5522V36.4382C29.9749 37.5782 27.3107 38.9462 26.2007 38.9462C25.0906 38.9462 22.4265 37.6922 20.7615 36.4382L20.6505 36.3242L20.5395 36.2102C20.4284 36.2102 12.8801 31.5362 8.32893 25.1521C3.33371 18.084 4.55477 13.41 5.99783 10.3319C7.99592 6.34191 11.215 5.4299 13.5462 5.4299ZM13.5462 0.755859C9.54998 0.755859 4.66577 2.57988 1.77964 8.50793C-1.10648 14.436 -0.66246 21.0481 4.44376 28.1161C9.54998 35.2982 17.9863 40.4282 17.9863 40.4282C17.9863 40.4282 22.5375 43.7343 25.9787 43.7343C29.4198 43.7343 33.971 40.4282 33.971 40.4282C33.971 40.4282 42.4074 35.2982 47.5136 28.1161C52.6198 20.9341 53.0639 14.436 50.1777 8.50793C47.2916 2.57988 42.4074 0.755859 38.4112 0.755859C34.4151 0.755859 30.1969 2.69388 25.8677 7.59593C21.8715 2.69388 17.5423 0.755859 13.5462 0.755859Z" fill="#E94B4B"/>
<path d="M86.2813 5.89501C86.2813 10.5691 86.2813 15.1291 86.2813 19.8031C84.9493 19.8031 83.6172 19.8031 82.2852 19.8031C82.2852 13.6471 82.2852 7.49102 82.2852 1.33496C84.5053 1.33496 86.6143 1.33496 88.8344 1.33496C90.3885 6.12301 92.0536 10.911 93.6076 15.8131H93.7186C95.3837 11.0251 96.9378 6.12301 98.4918 1.33496C100.712 1.33496 102.932 1.33496 105.152 1.33496C105.152 7.49102 105.152 13.6471 105.152 19.8031C103.82 19.8031 102.488 19.8031 101.156 19.8031C101.156 15.1291 101.156 10.455 101.156 5.89501H101.045C99.4909 10.5691 97.9368 15.2431 96.3828 19.9171C94.6067 19.9171 92.8306 19.9171 91.0545 19.9171C89.5005 15.2431 87.9464 10.5691 86.2813 5.89501Z" fill="#585857"/>
<path d="M122.475 24.5938C127.803 24.5938 133.02 24.5938 138.348 24.5938C138.348 25.9618 138.348 27.3298 138.348 28.6978C134.463 28.6978 130.467 28.6978 126.471 28.6978C126.36 29.7238 126.471 30.7498 126.471 31.8898C130.356 31.8898 134.241 31.8898 138.237 31.8898C138.237 33.2578 138.237 34.6258 138.237 35.9939C134.352 35.9939 130.467 35.9939 126.582 35.9939C126.582 37.0199 126.582 38.0459 126.582 39.0719C130.578 39.0719 134.574 39.0719 138.57 39.0719C138.57 40.4399 138.57 41.8079 138.57 43.1759C133.242 43.1759 127.914 43.1759 122.586 43.1759C122.475 36.9059 122.475 30.7498 122.475 24.5938Z" fill="#585857"/>
<path d="M79.2962 15.6991C79.2962 17.0671 79.2962 19.8031 79.2962 19.8031C79.2962 19.8031 68.8618 19.8031 63.7555 19.8031H63.6445C63.6445 13.6471 63.6445 7.49102 63.6445 1.33496C68.9728 1.33496 74.079 1.33496 79.4072 1.33496C79.4072 2.70297 79.4072 3.95698 79.4072 5.439C75.522 5.439 71.6369 5.439 67.6407 5.439C67.6407 6.46501 67.6407 7.49102 67.6407 8.51703C71.5259 8.51703 75.411 8.51703 79.4072 8.51703C79.4072 9.88504 79.4072 11.2531 79.4072 12.6211C78.8522 12.6211 67.6407 12.6211 67.6407 12.6211V15.6991C67.5297 15.6991 77.8531 15.6991 79.2962 15.6991Z" fill="#585857"/>
<path d="M176.427 12.6211V15.6991H188.194V19.8031C188.194 19.8031 177.649 19.8031 172.32 19.8031C172.32 13.6471 172.32 7.49102 172.32 1.33496C177.649 1.33496 188.194 1.33496 188.194 1.33496V5.439H176.427V8.63103H188.194V12.7351H176.427V12.6211Z" fill="#585857"/>
<path d="M128.576 12.7334C129.797 15.1274 132.351 19.8014 132.351 19.8014H127.799C127.799 19.8014 124.691 13.5314 124.58 13.4174C122.804 13.4174 121.028 13.4174 119.252 13.4174C119.252 15.5834 119.252 17.6354 119.252 19.8014C117.92 19.8014 115.256 19.8014 115.256 19.8014V1.21924C115.256 1.21924 121.916 1.21924 124.913 1.21924C126.134 1.21924 127.244 1.33324 128.354 1.90325C130.686 3.04326 131.796 5.20928 131.574 7.7173C131.463 9.31332 130.908 10.5673 129.797 11.7073C129.464 12.1633 129.02 12.3913 128.576 12.7334ZM119.252 9.31332C119.363 9.31332 119.474 9.31332 119.585 9.31332C121.472 9.31332 123.248 9.31332 125.135 9.31332C125.357 9.31332 125.69 9.31332 125.912 9.19932C126.911 9.08531 127.577 8.40131 127.577 7.3753C127.577 6.34929 127.022 5.55128 126.023 5.43728C125.69 5.43728 125.468 5.32328 125.135 5.32328C123.248 5.32328 121.361 5.32328 119.585 5.32328C119.474 5.32328 119.363 5.32328 119.252 5.32328C119.252 6.69129 119.252 8.05931 119.252 9.31332Z" fill="#585857"/>
<path d="M207.069 4.63961C206.07 5.43761 205.071 6.23562 203.961 7.14763C203.85 7.03363 203.739 7.03363 203.739 6.91963C202.629 5.77962 201.297 5.20961 199.854 4.98161C198.855 4.86761 197.745 4.86761 196.746 5.09561C196.413 5.20961 195.969 5.32362 195.747 5.66562C195.081 6.23562 195.081 7.26163 195.858 7.83164C196.302 8.17364 196.857 8.28764 197.301 8.28764C198.411 8.40164 199.521 8.51564 200.52 8.62964C201.741 8.74365 202.962 8.97165 204.183 9.42765C205.182 9.76966 205.959 10.3397 206.625 11.1377C208.068 12.8477 208.068 15.5837 206.847 17.5217C206.07 18.6617 204.96 19.4597 203.628 19.9158C202.296 20.3718 200.964 20.5998 199.632 20.5998C197.745 20.5998 195.858 20.2578 194.082 19.4598C192.75 18.8897 191.639 18.0917 190.751 16.9517L190.64 16.8377C190.64 16.8377 190.64 16.8377 190.529 16.7237C191.528 15.9257 192.528 15.0137 193.527 14.1017C193.638 14.2157 193.749 14.2157 193.86 14.3297C195.747 16.0397 197.967 16.7237 200.409 16.4957C200.964 16.4957 201.408 16.3817 201.963 16.2677C202.296 16.1537 202.629 16.0397 202.962 15.8117C203.406 15.5837 203.628 15.1277 203.517 14.5577C203.517 13.9877 203.184 13.6457 202.74 13.5317C202.185 13.3037 201.519 13.1897 200.853 13.0757C199.743 12.9617 198.633 12.8477 197.523 12.7337C196.302 12.6197 195.192 12.3917 194.082 11.9357C192.306 11.1377 191.195 9.76966 190.973 7.83164C190.751 5.55161 191.528 3.7276 193.416 2.35958C194.415 1.67558 195.636 1.21958 196.857 1.10557C198.411 0.877572 200.076 0.877573 201.63 1.33358C203.628 1.90358 205.404 2.92959 206.625 4.52561C206.958 4.41161 206.958 4.52561 207.069 4.63961Z" fill="#585857"/>
<path d="M157.117 27.8969C156.118 28.6949 155.119 29.4929 154.009 30.4049C153.898 30.2909 153.787 30.2909 153.787 30.1769C152.677 29.0369 151.345 28.4669 149.902 28.2389C148.792 28.1249 147.793 28.1249 146.683 28.4669C146.35 28.5809 146.017 28.8089 145.684 29.0369C145.018 29.6069 145.018 30.6329 145.795 31.0889C146.239 31.4309 146.794 31.5449 147.238 31.5449C148.348 31.6589 149.458 31.7729 150.457 31.8869C151.678 32.0009 152.899 32.2289 154.12 32.6849C155.119 33.0269 155.896 33.5969 156.562 34.3949C157.783 35.9909 157.894 37.8149 157.339 39.639C156.895 40.893 156.007 41.805 154.897 42.489C153.787 43.173 152.677 43.515 151.345 43.743C149.569 43.971 147.793 43.971 146.017 43.515C144.352 43.059 142.909 42.375 141.577 41.235C141.133 40.893 140.799 40.437 140.355 39.981C141.355 39.069 142.354 38.157 143.353 37.3589C143.464 37.4729 143.575 37.4729 143.575 37.5869C145.462 39.297 147.682 39.981 150.124 39.867C150.679 39.867 151.234 39.753 151.678 39.639C152.011 39.525 152.344 39.411 152.677 39.183C153.121 38.955 153.343 38.499 153.232 37.929C153.232 37.3589 152.899 37.0169 152.455 36.9029C151.9 36.6749 151.234 36.5609 150.568 36.4469C149.458 36.3329 148.348 36.2189 147.238 36.1049C146.128 35.9909 145.018 35.7629 144.019 35.3069C143.464 35.0789 142.909 34.7369 142.465 34.3949C141.022 33.2549 140.466 31.6589 140.577 29.8349C140.8 27.5549 142.132 26.0728 144.019 25.1608C145.018 24.7048 146.128 24.4768 147.238 24.3628C148.57 24.2488 149.902 24.3628 151.123 24.7048C153.121 25.2748 154.897 26.3008 156.229 28.0109C157.006 27.6689 157.117 27.7828 157.117 27.8969Z" fill="#585857"/>
<path d="M99.27 33.8254C99.159 36.5614 98.3819 38.9554 96.4949 40.8934C95.0518 42.4894 93.1647 43.2875 91.0556 43.6295C89.5016 43.8575 87.9475 43.7435 86.5044 43.2875C83.6183 42.3754 81.5092 40.4374 80.5102 37.5874C79.4001 34.5094 79.6221 31.5453 81.2872 28.6953C82.5083 26.5293 84.3953 25.1613 86.7264 24.4773C89.0575 23.7933 91.3886 23.9073 93.6087 24.9333C96.4949 26.1873 98.2709 28.5813 98.937 31.6593C99.159 32.3434 99.27 33.0274 99.27 33.8254ZM89.7236 28.1253C87.6145 28.1253 85.8384 28.9233 84.7284 30.8613C83.8403 32.4574 83.7293 34.0534 84.1733 35.7634C84.7284 37.3594 85.7274 38.6134 87.2815 39.1834C87.8365 39.4114 88.2805 39.5254 88.8355 39.5254C91.0556 39.7534 92.9427 38.9554 94.1638 36.9034C95.1628 35.3074 95.2738 33.5974 94.7188 31.8873C94.1638 30.2913 93.1647 29.1513 91.6107 28.4673C91.0556 28.2393 90.3896 28.1253 89.7236 28.1253Z" fill="#585857"/>
<path d="M141.235 15.7011C140.68 17.0691 140.125 18.5511 139.681 19.9191C138.238 19.9191 136.795 19.9191 135.352 19.9191C135.352 19.5771 141.568 2.81894 142.234 1.45093C144.343 1.45093 146.452 1.45093 148.672 1.45093C151.003 7.60699 155.665 20.0331 155.665 20.0331H151.225C151.225 20.0331 150.226 17.5251 149.893 16.3851C149.782 16.1571 149.782 16.0431 149.671 15.8151C146.785 15.7011 144.01 15.7011 141.235 15.7011ZM148.117 11.483C147.229 9.089 146.341 6.80898 145.564 4.41495H145.453C144.565 6.69498 143.677 9.089 142.9 11.483C144.565 11.483 146.341 11.483 148.117 11.483Z" fill="#585857"/>
<path d="M100.492 24.5938C101.935 24.5938 103.378 24.5938 104.932 24.5938C106.597 29.7238 108.374 34.8538 110.039 39.9839H110.15C111.815 34.8538 113.591 29.8378 115.256 24.7077C116.699 24.7077 118.142 24.7077 119.585 24.7077C119.585 25.0498 113.591 42.6059 113.258 43.1759C111.149 43.1759 109.04 43.1759 106.93 43.1759C104.71 36.9059 102.601 30.7498 100.492 24.5938Z" fill="#585857"/>
<path d="M163.211 19.8014C161.879 19.8014 160.547 19.8014 159.215 19.8014C159.215 15.0134 159.215 10.2253 159.215 5.32328C158.66 5.32328 158.216 5.32328 157.661 5.32328C157.106 5.32328 156.662 5.32328 156.107 5.32328C155.662 5.32328 155.107 5.32328 154.663 5.32328C154.219 5.32328 153.664 5.32328 153.109 5.32328C153.109 3.95527 153.109 1.21924 153.109 1.21924H169.316C169.316 1.21924 169.316 3.84126 169.316 5.20928C167.318 5.20928 165.32 5.20928 163.322 5.20928C163.322 7.6033 163.322 9.99732 163.322 12.3913C163.211 15.0134 163.211 17.4074 163.211 19.8014Z" fill="#585857"/>
<path d="M77.6285 38.9562C77.6285 40.3242 77.6285 41.6922 77.6285 42.9462C77.2955 43.0602 64.086 43.0602 63.4199 42.9462C63.4199 36.7902 63.4199 30.6341 63.4199 24.478C64.752 24.478 65.973 24.478 67.4161 24.478C67.4161 26.074 67.4161 27.6701 67.4161 29.2661C67.4161 30.8621 67.4161 32.4581 67.4161 34.0541C67.4161 35.6501 67.4161 37.2462 67.4161 38.9562C68.5261 38.9562 69.6362 38.9562 70.7462 38.9562C71.8563 38.9562 73.0773 38.9562 74.1874 38.9562C75.4084 38.9562 76.5185 38.9562 77.6285 38.9562Z" fill="#585857"/>
<path d="M112.156 19.8031C110.824 19.8031 108.16 19.8031 108.16 19.8031C108.16 19.8031 108.16 7.37702 108.16 1.44896V1.33496C109.492 1.33496 110.713 1.33496 112.045 1.33496C112.156 7.49102 112.156 13.6471 112.156 19.8031Z" fill="#585857"/>
<path d="M165.627 28.9145C165.849 28.6865 165.96 28.3445 166.071 28.0025C166.071 27.4325 165.849 26.9765 165.294 26.6345C165.072 26.5205 164.739 26.5205 164.517 26.5205C163.851 26.5205 163.074 26.5205 162.408 26.5205C162.408 26.5205 162.408 26.5205 162.297 26.5205C162.297 27.8885 162.297 29.3705 162.297 30.7385C162.63 30.7385 162.852 30.7385 163.185 30.7385C163.185 30.2825 163.185 29.8265 163.185 29.2565C163.185 29.2565 163.185 29.2565 163.296 29.2565C163.629 29.2565 164.073 29.2565 164.406 29.2565H164.517C164.739 29.7125 164.961 30.1685 165.183 30.6245C165.183 30.6245 165.183 30.6245 165.294 30.6245C165.627 30.6245 165.96 30.6245 166.182 30.6245C165.849 30.0545 165.627 29.5985 165.294 29.0285C165.516 29.0285 165.516 29.0285 165.627 28.9145ZM164.85 28.3445C164.739 28.3445 164.739 28.3445 164.628 28.3445C164.184 28.3445 163.74 28.3445 163.296 28.3445C163.296 28.0025 163.296 27.7745 163.296 27.4325C163.296 27.4325 163.296 27.4325 163.407 27.4325C163.851 27.4325 164.295 27.4325 164.628 27.4325C164.739 27.4325 164.85 27.4325 164.961 27.4325C165.183 27.5465 165.294 27.6605 165.183 27.8885C165.183 28.1165 164.961 28.3445 164.85 28.3445Z" fill="#585857"/>
<path d="M164.078 24.6992C161.858 24.6992 160.082 26.5232 160.082 28.8033C160.082 31.0833 161.858 32.9073 164.078 32.9073C166.298 32.9073 168.074 31.0833 168.074 28.8033C168.074 26.5232 166.298 24.6992 164.078 24.6992ZM167.186 28.6893C167.186 29.4873 166.853 30.3993 166.298 30.9693C165.743 31.5393 164.966 31.8813 164.078 31.8813C163.19 31.8813 162.413 31.5393 161.858 30.9693C161.303 30.3993 160.97 29.6013 160.97 28.6893C160.97 27.7772 161.303 27.0932 161.858 26.4092C162.413 25.8392 163.19 25.4972 164.078 25.4972C164.855 25.4972 165.743 25.8392 166.298 26.4092C166.853 27.0932 167.186 27.8912 167.186 28.6893Z" fill="#585857"/>
</svg>
