<svg width="22" height="18" viewBox="0 0 22 18" fill="none" xmlns="http://www.w3.org/2000/svg">
<path d="M2.33268 17.6668C1.73685 17.6668 1.22696 17.4549 0.803016 17.0309C0.378349 16.6062 0.166016 16.096 0.166016 15.5002V2.50016C0.166016 1.90433 0.378349 1.39444 0.803016 0.970496C1.22696 0.545829 1.73685 0.333496 2.33268 0.333496H19.666C20.2618 0.333496 20.7721 0.545829 21.1968 0.970496C21.6207 1.39444 21.8327 1.90433 21.8327 2.50016V15.5002C21.8327 16.096 21.6207 16.6062 21.1968 17.0309C20.7721 17.4549 20.2618 17.6668 19.666 17.6668H2.33268ZM10.9993 10.0835L2.33268 4.66683V15.5002H19.666V4.66683L10.9993 10.0835ZM10.9993 7.91683L19.666 2.50016H2.33268L10.9993 7.91683ZM2.33268 4.66683V2.50016V15.5002V4.66683Z" fill="white"/>
</svg>
