<svg width="28" height="27" viewBox="0 0 28 27" fill="none" xmlns="http://www.w3.org/2000/svg">
<path d="M4.57856 3.52441H9.84115L12.4724 10.1027L9.18333 12.0761C10.5923 14.9331 12.9046 17.2454 15.7616 18.6544L17.735 15.3652L24.3133 17.9965V23.2591C24.3133 23.957 24.0361 24.6263 23.5426 25.1197C23.0491 25.6132 22.3798 25.8904 21.682 25.8904C16.55 25.5786 11.7096 23.3992 8.07401 19.7637C4.43845 16.1281 2.25914 11.2877 1.94727 6.15571C1.94727 5.45785 2.22449 4.78857 2.71795 4.2951C3.21142 3.80164 3.8807 3.52441 4.57856 3.52441" stroke="white" stroke-width="2.03713" stroke-linecap="round" stroke-linejoin="round"/>
<path d="M17.7344 7.47119C18.4322 7.47119 19.1015 7.74842 19.595 8.24188C20.0884 8.73534 20.3657 9.40462 20.3657 10.1025" stroke="white" stroke-width="2.80106" stroke-linecap="round" stroke-linejoin="round"/>
<path d="M17.7344 2.20898C19.828 2.20898 21.8358 3.04066 23.3162 4.52105C24.7966 6.00144 25.6283 8.00928 25.6283 10.1029" stroke="white" stroke-width="2.80106" stroke-linecap="round" stroke-linejoin="round"/>
</svg>
