<svg width="57" height="57" viewBox="0 0 57 57" fill="none" xmlns="http://www.w3.org/2000/svg">
<path d="M28.5 57C24.5575 57 20.8525 56.2519 17.385 54.7556C13.9175 53.2594 10.9012 51.2288 8.33625 48.6637C5.77125 46.0988 3.74062 43.0825 2.24437 39.615C0.748125 36.1475 0 32.4425 0 28.5C0 24.5575 0.748125 20.8525 2.24437 17.385C3.74062 13.9175 5.77125 10.9012 8.33625 8.33625C10.9012 5.77125 13.9175 3.74062 17.385 2.24437C20.8525 0.748125 24.5575 0 28.5 0C32.4425 0 36.1475 0.748125 39.615 2.24437C43.0825 3.74062 46.0988 5.77125 48.6637 8.33625C51.2288 10.9012 53.2594 13.9175 54.7556 17.385C56.2519 20.8525 57 24.5575 57 28.5C57 32.4425 56.2519 36.1475 54.7556 39.615C53.2594 43.0825 51.2288 46.0988 48.6637 48.6637C46.0988 51.2288 43.0825 53.2594 39.615 54.7556C36.1475 56.2519 32.4425 57 28.5 57ZM25.4362 52.6537V46.8112C23.7738 46.8112 22.3725 46.1937 21.2325 44.9587C20.0925 43.7237 19.5225 42.275 19.5225 40.6125V37.4775L4.91625 22.8712C4.67875 23.8212 4.5125 24.7594 4.4175 25.6856C4.3225 26.6119 4.275 27.55 4.275 28.5C4.275 34.675 6.28188 40.0662 10.2956 44.6737C14.3094 49.2812 19.3562 51.9412 25.4362 52.6537ZM46.3837 44.9587C47.4287 43.8187 48.3431 42.6075 49.1269 41.325C49.9106 40.0425 50.5756 38.7006 51.1219 37.2994C51.6681 35.8981 52.0719 34.4612 52.3331 32.9887C52.5944 31.5162 52.725 30.02 52.725 28.5C52.725 23.465 51.3475 18.8931 48.5925 14.7844C45.8375 10.6756 42.1562 7.67125 37.5487 5.77125V7.05375C37.5487 8.71625 36.9787 10.165 35.8387 11.4C34.6987 12.635 33.2975 13.2525 31.635 13.2525H25.4362V19.4512C25.4362 20.2587 25.1156 20.9237 24.4744 21.4462C23.8331 21.9687 23.1087 22.23 22.3012 22.23H16.3875V28.5H34.77C35.5775 28.5 36.2425 28.8087 36.765 29.4262C37.2875 30.0437 37.5487 30.7562 37.5487 31.5637V40.6125H40.6125C41.99 40.6125 43.2012 41.0162 44.2462 41.8237C45.2912 42.6312 46.0037 43.6762 46.3837 44.9587Z" fill="#002F50"/>
</svg>
