<svg width="104" height="9" viewBox="0 0 104 9" fill="none" xmlns="http://www.w3.org/2000/svg">
<path d="M103.053 1.15128C103.053 1.15128 103.052 1.15261 103.05 1.15525C103.052 1.1526 103.053 1.15127 103.053 1.15128ZM99.8103 1.38988C100.836 1.43203 101.637 1.5054 102.223 1.60614C101.634 1.84752 100.797 2.10615 99.7086 2.3732C97.1564 2.99934 93.4157 3.6256 88.7436 4.21303C79.4101 5.38652 66.4714 6.39149 52.1443 6.94674C37.8171 7.502 24.8395 7.50145 15.4432 7.05385C10.7396 6.82979 6.96162 6.49492 4.3686 6.06819C3.26607 5.88674 2.41378 5.69426 1.80804 5.49981C2.3913 5.35281 3.19581 5.21657 4.22828 5.0943C6.81308 4.78819 10.5916 4.59465 15.3096 4.44309C18.9393 4.3265 23.1247 4.23495 27.7221 4.1344C35.013 3.97494 43.3402 3.79281 52.13 3.45215C60.9331 3.11098 69.2384 2.64808 76.4961 2.24356C81.0547 1.98949 85.1999 1.75845 88.7957 1.59508C93.481 1.3822 97.2326 1.28392 99.8103 1.38988ZM0.943487 5.11252C0.940725 5.11003 0.939528 5.10878 0.93962 5.10877C0.939711 5.10877 0.941092 5.11001 0.943487 5.11252Z" stroke="#F999AE" stroke-width="2"/>
</svg>
