<svg width="166" height="9" viewBox="0 0 166 9" fill="none" xmlns="http://www.w3.org/2000/svg">
<path d="M158.84 4.66957C160.441 4.78488 161.736 4.91684 162.715 5.06659C161.713 5.26448 160.374 5.45419 158.712 5.63163C154.556 6.07542 148.524 6.42818 141.047 6.67309C126.1 7.16267 105.452 7.2191 82.6477 6.72525C59.8434 6.2314 39.2168 5.28113 24.3054 4.14495C16.8461 3.57658 10.8351 2.96303 6.70213 2.33973C5.0547 2.09128 3.72815 1.84452 2.73618 1.60411C3.73284 1.49619 5.04978 1.42018 6.67524 1.37433C10.8488 1.25662 16.8995 1.34097 24.3996 1.53467C30.1932 1.68429 36.8514 1.89923 44.1595 2.13515C55.7328 2.50875 68.9359 2.93497 82.9157 3.23771C96.9166 3.54091 110.108 3.68587 121.649 3.81269C128.908 3.89246 135.515 3.96506 141.258 4.06534C148.712 4.19547 154.712 4.3721 158.84 4.66957Z" stroke="#F999AE" stroke-width="2"/>
</svg>
